<svg viewBox="0 0 54.087639511231934 100.68268463332444" height="100.68268463332444" width="64.087639511231934">
	<g>
		<svg xmlns="http://www.w3.org/2000/svg" data-name="Layer 1" viewBox="24.298272534972764 2.3 51.303454930054485 95.5" x="0" y="0" height="100.68268463332444" width="54.087639511231934" class="icon-icon-0" data-fill-palette-color="accent" id="icon-0">
			<g data-name="Group" fill="#ff851b" data-fill-palette-color="accent">
				<path data-name="Compound Path" d="M30.3 44.2H27.4a3 3 0 0 0-3.1 3.1V50A23.4 23.4 0 0 0 46.9 72.4h0.4V97.8h6V87.1A23.4 23.4 0 0 0 75.6 64.7V61.9a3 3 0 0 0-3.1-3.1H69.7a23.1 23.1 0 0 0-16.5 7.8V43.4h1.5a13 13 0 0 0 13-13v-14H61.2V2.3h-6V16.4h-10V2.3h-6V16.4H32.8v14a13 13 0 0 0 13 13h1.5v9.1A23.2 23.2 0 0 0 30.3 44.2Zm0.1 6A17.4 17.4 0 0 1 46.7 66.4 17.4 17.4 0 0 1 30.5 50.2ZM69.5 64.9A17.3 17.3 0 0 1 53.3 81.1 17.3 17.3 0 0 1 69.5 64.9ZM45.8 37.4a7 7 0 0 1-7-7v-8h23v8a7 7 0 0 1-7 7h-9Z" fill="#ff851b" data-fill-palette-color="accent">
				</path>
			</g>
		</svg>
	</g>
</svg>
