<svg width="244.43135999999998" viewBox="3.66 -38.01 926.19 48.559999999999995" height="12.813947313987505" data-palette-color="#5ebc67">
	<path d="M6.59-20.95L6.59 0 3.66 0 3.66-26.42 6.47-26.42 6.59-20.95ZM6.05-14.87L4.64-15.6Q4.83-18.7 6.1-21.26 7.37-23.83 9.64-25.37 11.91-26.9 15.14-26.9L15.14-26.9Q18.99-26.9 21.31-24.74 23.63-22.58 23.63-17.58L23.63-17.58 23.63 0 20.7 0 20.7-17.48Q20.7-20.12 19.9-21.62 19.09-23.12 17.64-23.75 16.19-24.39 14.28-24.39L14.28-24.39Q12.04-24.39 10.49-23.47 8.94-22.56 7.97-21.11 7.01-19.65 6.56-17.99 6.1-16.33 6.05-14.87L6.05-14.87ZM23.61-17.16L21.66-17.11Q21.83-19.65 23.11-21.9 24.39-24.15 26.67-25.52 28.96-26.9 32.08-26.9L32.08-26.9Q34.84-26.9 36.77-25.92 38.7-24.93 39.71-22.79 40.72-20.65 40.72-17.21L40.72-17.21 40.72 0 37.79 0 37.79-17.24Q37.79-20.04 36.99-21.59 36.18-23.14 34.73-23.77 33.28-24.39 31.37-24.39L31.37-24.39Q29.44-24.37 28.02-23.68 26.59-23 25.62-21.92 24.66-20.85 24.16-19.59 23.66-18.33 23.61-17.16L23.61-17.16ZM46.56-12.79L46.56-13.6Q46.56-17.46 48.02-20.46 49.48-23.46 52.12-25.18 54.76-26.9 58.32-26.9L58.32-26.9Q61.91-26.9 64.57-25.18 67.23-23.46 68.69-20.46 70.14-17.46 70.14-13.6L70.14-13.6 70.14-12.79Q70.14-8.96 68.69-5.96 67.23-2.95 64.58-1.23 61.94 0.49 58.37 0.49L58.37 0.49Q54.78 0.49 52.13-1.23 49.48-2.95 48.02-5.96 46.56-8.96 46.56-12.79L46.56-12.79ZM49.48-13.6L49.48-12.79Q49.48-9.91 50.51-7.45 51.54-4.98 53.51-3.48 55.49-1.98 58.37-1.98L58.37-1.98Q61.23-1.98 63.19-3.48 65.16-4.98 66.18-7.45 67.21-9.91 67.21-12.79L67.21-12.79 67.21-13.6Q67.21-16.46 66.18-18.92 65.16-21.39 63.18-22.91 61.2-24.44 58.32-24.44L58.32-24.44Q55.47-24.44 53.49-22.91 51.51-21.39 50.5-18.92 49.48-16.46 49.48-13.6L49.48-13.6ZM93.35-5.13L93.35-37.5 96.28-37.5 96.28 0 93.55 0 93.35-5.13ZM75.02-12.94L75.02-13.45Q75.02-17.55 76.26-20.58 77.51-23.61 79.79-25.26 82.08-26.9 85.22-26.9L85.22-26.9Q88.3-26.9 90.45-25.57 92.6-24.24 93.88-21.86 95.16-19.48 95.62-16.28L95.62-16.28 95.62-9.67Q95.23-6.74 93.96-4.44 92.7-2.15 90.51-0.83 88.33 0.49 85.18 0.49L85.18 0.49Q82.05 0.49 79.77-1.22 77.49-2.93 76.25-5.96 75.02-8.98 75.02-12.94L75.02-12.94ZM77.95-13.45L77.95-12.94Q77.95-9.86 78.78-7.41 79.61-4.96 81.33-3.5 83.05-2.05 85.71-2.05L85.71-2.05Q88.23-2.05 89.94-3.02 91.65-3.98 92.67-5.58 93.7-7.18 94.16-9.11L94.16-9.11 94.16-16.72Q93.87-17.99 93.31-19.34 92.74-20.68 91.78-21.81 90.82-22.95 89.34-23.66 87.86-24.37 85.76-24.37L85.76-24.37Q83.08-24.37 81.34-22.92 79.61-21.48 78.78-19.01 77.95-16.53 77.95-13.45L77.95-13.45ZM114.18 0.49L114.18 0.49Q110.73 0.49 108.06-1.18 105.39-2.86 103.86-5.77 102.34-8.69 102.34-12.48L102.34-12.48 102.34-13.53Q102.34-17.6 103.91-20.61 105.49-23.61 108.06-25.26 110.64-26.9 113.64-26.9L113.64-26.9Q117.01-26.9 119.35-25.35 121.7-23.8 122.91-21.07 124.11-18.33 124.11-14.82L124.11-14.82 124.11-13.04 104.12-13.04 104.12-15.5 121.18-15.5 121.18-15.84Q121.14-18.07 120.29-20.02 119.45-21.97 117.79-23.21 116.13-24.44 113.64-24.44L113.64-24.44Q111.17-24.44 109.27-23.05 107.37-21.66 106.32-19.2 105.27-16.75 105.27-13.53L105.27-13.53 105.27-12.48Q105.27-9.55 106.4-7.18 107.54-4.81 109.59-3.39 111.64-1.98 114.3-1.98L114.3-1.98Q116.64-1.98 118.45-2.84 120.26-3.71 121.7-5.59L121.7-5.59 123.55-4.2Q122.26-2.27 120-0.89 117.74 0.49 114.18 0.49ZM132.73-22.05L132.73 0 129.8 0 129.8-26.42 132.66-26.42 132.73-22.05ZM142.08-26.61L142.01-23.95Q141.52-24.02 141.05-24.07 140.59-24.12 140.05-24.12L140.05-24.12Q137.54-24.12 135.83-22.9 134.12-21.68 133.23-19.63 132.34-17.58 132.27-15.04L132.27-15.04 131.17-14.65Q131.17-18.09 132.13-20.86 133.1-23.63 135.09-25.27 137.07-26.9 140.15-26.9L140.15-26.9Q140.71-26.9 141.26-26.82 141.81-26.73 142.08-26.61L142.08-26.61ZM149.55-20.78L149.55 0 146.62 0 146.62-26.42 149.43-26.42 149.55-20.78ZM148.91-14.87L147.59-15.6Q147.79-18.7 149.13-21.26 150.48-23.83 152.78-25.37 155.09-26.9 158.12-26.9L158.12-26.9Q160.78-26.9 162.66-25.93 164.54-24.95 165.55-22.81 166.56-20.68 166.56-17.19L166.56-17.19 166.56 0 163.63 0 163.63-17.21Q163.63-19.95 162.88-21.51 162.12-23.07 160.73-23.73 159.34-24.39 157.43-24.39L157.43-24.39Q155.33-24.39 153.76-23.47 152.18-22.56 151.12-21.11 150.06-19.65 149.5-17.99 148.94-16.33 148.91-14.87L148.91-14.87ZM177.38-26.42L177.38 0 174.47 0 174.47-26.42 177.38-26.42ZM173.96-34.06L173.96-34.06Q173.96-34.89 174.48-35.46 175.01-36.04 175.94-36.04L175.94-36.04Q176.89-36.04 177.43-35.46 177.96-34.89 177.96-34.06L177.96-34.06Q177.96-33.25 177.43-32.69 176.89-32.13 175.94-32.13L175.94-32.13Q175.01-32.13 174.48-32.69 173.96-33.25 173.96-34.06ZM204.43-2.47L204.43 0 184.72 0 184.72-2.47 204.43-2.47ZM203.35-24.24L185.48 0 183.67 0 183.67-2.17 201.52-26.42 203.35-26.42 203.35-24.24ZM202.06-26.42L202.06-23.93 184.16-23.93 184.16-26.42 202.06-26.42ZM212.94-26.42L212.94 0 210.04 0 210.04-26.42 212.94-26.42ZM209.53-34.06L209.53-34.06Q209.53-34.89 210.05-35.46 210.58-36.04 211.5-36.04L211.5-36.04Q212.46-36.04 212.99-35.46 213.53-34.89 213.53-34.06L213.53-34.06Q213.53-33.25 212.99-32.69 212.46-32.13 211.5-32.13L211.5-32.13Q210.58-32.13 210.05-32.69 209.53-33.25 209.53-34.06ZM223.83-20.78L223.83 0 220.9 0 220.9-26.42 223.71-26.42 223.83-20.78ZM223.2-14.87L221.88-15.6Q222.07-18.7 223.42-21.26 224.76-23.83 227.06-25.37 229.37-26.9 232.4-26.9L232.4-26.9Q235.06-26.9 236.94-25.93 238.82-24.95 239.83-22.81 240.85-20.68 240.85-17.19L240.85-17.19 240.85 0 237.92 0 237.92-17.21Q237.92-19.95 237.16-21.51 236.4-23.07 235.01-23.73 233.62-24.39 231.72-24.39L231.72-24.39Q229.62-24.39 228.04-23.47 226.47-22.56 225.4-21.11 224.34-19.65 223.78-17.99 223.22-16.33 223.2-14.87L223.2-14.87ZM265.77-26.42L268.51-26.42 268.51-0.46Q268.51 2.98 267.2 5.44 265.89 7.91 263.51 9.23 261.13 10.55 257.91 10.55L257.91 10.55Q256.27 10.55 254.55 10.05 252.83 9.55 251.31 8.53 249.78 7.52 248.71 6.03L248.71 6.03 250.34 4.25Q251.95 6.23 253.78 7.15 255.61 8.08 257.74 8.08L257.74 8.08Q261.47 8.08 263.52 5.85 265.58 3.61 265.58-0.37L265.58-0.37 265.58-20.61 265.77-26.42ZM247.24-12.94L247.24-13.45Q247.24-17.55 248.46-20.58 249.68-23.61 251.98-25.26 254.27-26.9 257.45-26.9L257.45-26.9Q259.74-26.9 261.52-26.15 263.31-25.39 264.6-23.97 265.89-22.56 266.69-20.62 267.48-18.68 267.85-16.28L267.85-16.28 267.85-9.67Q267.46-6.74 266.19-4.44 264.92-2.15 262.73-0.83 260.55 0.49 257.4 0.49L257.4 0.49Q254.25 0.49 251.96-1.22 249.68-2.93 248.46-5.96 247.24-8.98 247.24-12.94L247.24-12.94ZM250.17-13.45L250.17-12.94Q250.17-9.86 251-7.41 251.83-4.96 253.55-3.5 255.27-2.05 257.93-2.05L257.93-2.05Q260.45-2.05 262.13-3.02 263.82-3.98 264.83-5.58 265.84-7.18 266.31-9.11L266.31-9.11 266.31-16.72Q266.04-17.99 265.49-19.34 264.94-20.68 263.98-21.81 263.01-22.95 261.54-23.66 260.06-24.37 257.98-24.37L257.98-24.37Q255.3-24.37 253.56-22.92 251.83-21.48 251-19.01 250.17-16.53 250.17-13.45L250.17-13.45ZM304.39-4.74L304.39-18.36Q304.39-21.19 302.63-22.83 300.87-24.46 297.58-24.46L297.58-24.46Q295.53-24.46 293.93-23.74 292.33-23.02 291.41-21.81 290.5-20.61 290.5-19.12L290.5-19.12 287.57-19.14Q287.57-21.14 288.85-22.91 290.13-24.68 292.41-25.79 294.7-26.9 297.7-26.9L297.7-26.9Q300.53-26.9 302.69-25.95 304.85-25 306.09-23.1 307.32-21.19 307.32-18.31L307.32-18.31 307.32-5.54Q307.32-4.17 307.53-2.71 307.73-1.25 308.12-0.29L308.12-0.29 308.12 0 305 0Q304.71-0.88 304.55-2.21 304.39-3.54 304.39-4.74L304.39-4.74ZM305.07-15.38L305.12-13.13 299.38-13.13Q294.92-13.13 292.39-11.56 289.86-9.99 289.86-7.28L289.86-7.28Q289.86-5.13 291.46-3.61 293.06-2.1 295.8-2.1L295.8-2.1Q298.24-2.1 300.1-2.99 301.97-3.88 303.18-5.37 304.39-6.86 304.83-8.59L304.83-8.59 306.1-6.91Q305.78-5.69 304.94-4.41 304.1-3.13 302.75-2.01 301.41-0.9 299.59-0.21 297.77 0.49 295.48 0.49L295.48 0.49Q292.89 0.49 290.97-0.49 289.06-1.46 287.99-3.16 286.93-4.86 286.93-7.01L286.93-7.01Q286.93-10.91 290.17-13.15 293.4-15.38 298.99-15.38L298.99-15.38 305.07-15.38ZM332.49-26.42L335.22-26.42 335.22-0.46Q335.22 2.98 333.92 5.44 332.61 7.91 330.23 9.23 327.85 10.55 324.63 10.55L324.63 10.55Q322.99 10.55 321.27 10.05 319.55 9.55 318.02 8.53 316.5 7.52 315.42 6.03L315.42 6.03 317.06 4.25Q318.67 6.23 320.5 7.15 322.33 8.08 324.45 8.08L324.45 8.08Q328.19 8.08 330.24 5.85 332.29 3.61 332.29-0.37L332.29-0.37 332.29-20.61 332.49-26.42ZM313.96-12.94L313.96-13.45Q313.96-17.55 315.18-20.58 316.4-23.61 318.69-25.26 320.99-26.9 324.16-26.9L324.16-26.9Q326.46-26.9 328.24-26.15 330.02-25.39 331.32-23.97 332.61-22.56 333.4-20.62 334.2-18.68 334.56-16.28L334.56-16.28 334.56-9.67Q334.17-6.74 332.9-4.44 331.63-2.15 329.45-0.83 327.26 0.49 324.11 0.49L324.11 0.49Q320.96 0.49 318.68-1.22 316.4-2.93 315.18-5.96 313.96-8.98 313.96-12.94L313.96-12.94ZM316.89-13.45L316.89-12.94Q316.89-9.86 317.72-7.41 318.55-4.96 320.27-3.5 321.99-2.05 324.65-2.05L324.65-2.05Q327.16-2.05 328.85-3.02 330.53-3.98 331.55-5.58 332.56-7.18 333.02-9.11L333.02-9.11 333.02-16.72Q332.76-17.99 332.21-19.34 331.66-20.68 330.69-21.81 329.73-22.95 328.25-23.66 326.77-24.37 324.7-24.37L324.7-24.37Q322.01-24.37 320.28-22.92 318.55-21.48 317.72-19.01 316.89-16.53 316.89-13.45L316.89-13.45ZM345.77-22.05L345.77 0 342.84 0 342.84-26.42 345.69-26.42 345.77-22.05ZM355.12-26.61L355.04-23.95Q354.55-24.02 354.09-24.07 353.63-24.12 353.09-24.12L353.09-24.12Q350.58-24.12 348.87-22.9 347.16-21.68 346.27-19.63 345.38-17.58 345.3-15.04L345.3-15.04 344.2-14.65Q344.2-18.09 345.17-20.86 346.13-23.63 348.12-25.27 350.11-26.9 353.19-26.9L353.19-26.9Q353.75-26.9 354.3-26.82 354.85-26.73 355.12-26.61L355.12-26.61ZM362.93-26.42L362.93 0 360.02 0 360.02-26.42 362.93-26.42ZM359.51-34.06L359.51-34.06Q359.51-34.89 360.03-35.46 360.56-36.04 361.49-36.04L361.49-36.04Q362.44-36.04 362.98-35.46 363.51-34.89 363.51-34.06L363.51-34.06Q363.51-33.25 362.98-32.69 362.44-32.13 361.49-32.13L361.49-32.13Q360.56-32.13 360.03-32.69 359.51-33.25 359.51-34.06ZM380.65-1.98L380.65-1.98Q382.5-1.98 384.13-2.7 385.75-3.42 386.81-4.8 387.88-6.18 388.02-8.18L388.02-8.18 390.83-8.18Q390.71-5.66 389.29-3.7 387.88-1.73 385.62-0.62 383.36 0.49 380.65 0.49L380.65 0.49Q376.96 0.49 374.45-1.26 371.93-3 370.66-5.99 369.39-8.98 369.39-12.7L369.39-12.7 369.39-13.72Q369.39-17.46 370.68-20.43 371.96-23.41 374.46-25.16 376.96-26.9 380.62-26.9L380.62-26.9Q383.46-26.9 385.71-25.76 387.97-24.61 389.34-22.51 390.71-20.41 390.83-17.53L390.83-17.53 388.02-17.53Q387.9-19.65 386.9-21.2 385.9-22.75 384.26-23.6 382.63-24.44 380.62-24.44L380.62-24.44Q377.65-24.44 375.8-22.92 373.96-21.41 373.13-18.97 372.3-16.53 372.3-13.72L372.3-13.72 372.3-12.7Q372.3-9.89 373.13-7.43 373.96-4.98 375.8-3.48 377.65-1.98 380.65-1.98ZM413.6-6.1L413.6-26.42 416.53-26.42 416.53 0 413.7 0 413.6-6.1ZM414.14-10.99L415.66-11.04Q415.66-7.71 414.61-5.11 413.56-2.51 411.26-1.01 408.97 0.49 405.26 0.49L405.26 0.49Q401.37 0.49 398.97-1.82 396.56-4.13 396.56-9.52L396.56-9.52 396.56-26.42 399.49-26.42 399.49-9.47Q399.49-6.64 400.32-5.03 401.15-3.42 402.53-2.73 403.91-2.05 405.6-2.05L405.6-2.05Q408.82-2.05 410.69-3.3 412.56-4.54 413.35-6.59 414.14-8.64 414.14-10.99L414.14-10.99ZM427.4-37.5L427.4 0 424.49 0 424.49-37.5 427.4-37.5ZM445.39-26.42L445.39-24.02 432.13-24.02 432.13-26.42 445.39-26.42ZM436.96-33.2L439.89-33.2 439.89-6.42Q439.89-4.59 440.38-3.65 440.87-2.71 441.66-2.39 442.46-2.08 443.36-2.08L443.36-2.08Q444.02-2.08 444.62-2.16 445.22-2.25 445.7-2.32L445.7-2.32 445.83 0.1Q445.29 0.27 444.43 0.38 443.58 0.49 442.73 0.49L442.73 0.49Q441.04 0.49 439.75-0.13 438.45-0.76 437.71-2.28 436.96-3.81 436.96-6.45L436.96-6.45 436.96-33.2ZM468.38-6.1L468.38-26.42 471.31-26.42 471.31 0 468.48 0 468.38-6.1ZM468.92-10.99L470.43-11.04Q470.43-7.71 469.38-5.11 468.33-2.51 466.04-1.01 463.74 0.49 460.03 0.49L460.03 0.49Q456.15 0.49 453.75-1.82 451.34-4.13 451.34-9.52L451.34-9.52 451.34-26.42 454.27-26.42 454.27-9.47Q454.27-6.64 455.1-5.03 455.93-3.42 457.31-2.73 458.69-2.05 460.37-2.05L460.37-2.05Q463.6-2.05 465.47-3.3 467.33-4.54 468.13-6.59 468.92-8.64 468.92-10.99L468.92-10.99ZM481.83-22.05L481.83 0 478.9 0 478.9-26.42 481.76-26.42 481.83-22.05ZM491.18-26.61L491.11-23.95Q490.62-24.02 490.16-24.07 489.69-24.12 489.16-24.12L489.16-24.12Q486.64-24.12 484.93-22.9 483.22-21.68 482.33-19.63 481.44-17.58 481.37-15.04L481.37-15.04 480.27-14.65Q480.27-18.09 481.23-20.86 482.2-23.63 484.19-25.27 486.18-26.9 489.25-26.9L489.25-26.9Q489.82-26.9 490.36-26.82 490.91-26.73 491.18-26.61L491.18-26.61ZM505.95 0.49L505.95 0.49Q502.51 0.49 499.84-1.18 497.16-2.86 495.64-5.77 494.11-8.69 494.11-12.48L494.11-12.48 494.11-13.53Q494.11-17.6 495.68-20.61 497.26-23.61 499.84-25.26 502.41-26.9 505.41-26.9L505.41-26.9Q508.78-26.9 511.13-25.35 513.47-23.8 514.68-21.07 515.89-18.33 515.89-14.82L515.89-14.82 515.89-13.04 495.89-13.04 495.89-15.5 512.96-15.5 512.96-15.84Q512.91-18.07 512.07-20.02 511.22-21.97 509.56-23.21 507.9-24.44 505.41-24.44L505.41-24.44Q502.95-24.44 501.04-23.05 499.14-21.66 498.09-19.2 497.04-16.75 497.04-13.53L497.04-13.53 497.04-12.48Q497.04-9.55 498.17-7.18 499.31-4.81 501.36-3.39 503.41-1.98 506.07-1.98L506.07-1.98Q508.42-1.98 510.22-2.84 512.03-3.71 513.47-5.59L513.47-5.59 515.33-4.2Q514.03-2.27 511.77-0.89 509.52 0.49 505.95 0.49ZM532.17-12.79L532.17-13.6Q532.17-17.46 533.63-20.46 535.1-23.46 537.73-25.18 540.37-26.9 543.93-26.9L543.93-26.9Q547.52-26.9 550.18-25.18 552.85-23.46 554.3-20.46 555.75-17.46 555.75-13.6L555.75-13.6 555.75-12.79Q555.75-8.96 554.3-5.96 552.85-2.95 550.2-1.23 547.55 0.49 543.98 0.49L543.98 0.49Q540.39 0.49 537.75-1.23 535.1-2.95 533.63-5.96 532.17-8.96 532.17-12.79L532.17-12.79ZM535.1-13.6L535.1-12.79Q535.1-9.91 536.12-7.45 537.15-4.98 539.12-3.48 541.1-1.98 543.98-1.98L543.98-1.98Q546.84-1.98 548.8-3.48 550.77-4.98 551.8-7.45 552.82-9.91 552.82-12.79L552.82-12.79 552.82-13.6Q552.82-16.46 551.8-18.92 550.77-21.39 548.79-22.91 546.81-24.44 543.93-24.44L543.93-24.44Q541.08-24.44 539.1-22.91 537.12-21.39 536.11-18.92 535.1-16.46 535.1-13.6L535.1-13.6ZM564.71-20.78L564.71 0 561.78 0 561.78-26.42 564.59-26.42 564.71-20.78ZM564.07-14.87L562.75-15.6Q562.95-18.7 564.29-21.26 565.64-23.83 567.94-25.37 570.25-26.9 573.28-26.9L573.28-26.9Q575.94-26.9 577.82-25.93 579.7-24.95 580.71-22.81 581.72-20.68 581.72-17.19L581.72-17.19 581.72 0 578.79 0 578.79-17.21Q578.79-19.95 578.04-21.51 577.28-23.07 575.89-23.73 574.5-24.39 572.59-24.39L572.59-24.39Q570.49-24.39 568.92-23.47 567.34-22.56 566.28-21.11 565.22-19.65 564.66-17.99 564.1-16.33 564.07-14.87L564.07-14.87ZM599.5 0.49L599.5 0.49Q596.05 0.49 593.38-1.18 590.71-2.86 589.18-5.77 587.65-8.69 587.65-12.48L587.65-12.48 587.65-13.53Q587.65-17.6 589.23-20.61 590.8-23.61 593.38-25.26 595.96-26.9 598.96-26.9L598.96-26.9Q602.33-26.9 604.67-25.35 607.02-23.8 608.22-21.07 609.43-18.33 609.43-14.82L609.43-14.82 609.43-13.04 589.44-13.04 589.44-15.5 606.5-15.5 606.5-15.84Q606.45-18.07 605.61-20.02 604.77-21.97 603.11-23.21 601.45-24.44 598.96-24.44L598.96-24.44Q596.49-24.44 594.59-23.05 592.68-21.66 591.63-19.2 590.58-16.75 590.58-13.53L590.58-13.53 590.58-12.48Q590.58-9.55 591.72-7.18 592.85-4.81 594.91-3.39 596.96-1.98 599.62-1.98L599.62-1.98Q601.96-1.98 603.77-2.84 605.57-3.71 607.02-5.59L607.02-5.59 608.87-4.2Q607.58-2.27 605.32-0.89 603.06 0.49 599.5 0.49ZM632.33 0L629.42 0 629.42-29.71Q629.42-33.72 631.5-35.86 633.57-38.01 637.21-38.01L637.21-38.01Q637.99-38.01 638.78-37.93 639.58-37.84 640.34-37.6L640.34-37.6 640.12-35.18Q639.51-35.33 638.88-35.39 638.26-35.45 637.43-35.45L637.43-35.45Q635.06-35.45 633.69-33.95 632.33-32.45 632.33-29.71L632.33-29.71 632.33 0ZM638.65-26.42L638.65-24.02 625.05-24.02 625.05-26.42 638.65-26.42ZM659.94-4.74L659.94-18.36Q659.94-21.19 658.18-22.83 656.42-24.46 653.13-24.46L653.13-24.46Q651.07-24.46 649.48-23.74 647.88-23.02 646.96-21.81 646.05-20.61 646.05-19.12L646.05-19.12 643.12-19.14Q643.12-21.14 644.4-22.91 645.68-24.68 647.96-25.79 650.24-26.9 653.25-26.9L653.25-26.9Q656.08-26.9 658.24-25.95 660.4-25 661.63-23.1 662.87-21.19 662.87-18.31L662.87-18.31 662.87-5.54Q662.87-4.17 663.07-2.71 663.28-1.25 663.67-0.29L663.67-0.29 663.67 0 660.55 0Q660.25-0.88 660.1-2.21 659.94-3.54 659.94-4.74L659.94-4.74ZM660.62-15.38L660.67-13.13 654.93-13.13Q650.46-13.13 647.94-11.56 645.41-9.99 645.41-7.28L645.41-7.28Q645.41-5.13 647.01-3.61 648.61-2.1 651.34-2.1L651.34-2.1Q653.78-2.1 655.65-2.99 657.52-3.88 658.73-5.37 659.94-6.86 660.38-8.59L660.38-8.59 661.65-6.91Q661.33-5.69 660.49-4.41 659.64-3.13 658.3-2.01 656.96-0.9 655.14-0.21 653.32 0.49 651.03 0.49L651.03 0.49Q648.44 0.49 646.52-0.49 644.61-1.46 643.54-3.16 642.48-4.86 642.48-7.01L642.48-7.01Q642.48-10.91 645.72-13.15 648.95-15.38 654.54-15.38L654.54-15.38 660.62-15.38ZM673.58-22.05L673.58 0 670.65 0 670.65-26.42 673.51-26.42 673.58-22.05ZM682.93-26.61L682.86-23.95Q682.37-24.02 681.91-24.07 681.44-24.12 680.91-24.12L680.91-24.12Q678.39-24.12 676.68-22.9 674.97-21.68 674.08-19.63 673.19-17.58 673.12-15.04L673.12-15.04 672.02-14.65Q672.02-18.09 672.98-20.86 673.95-23.63 675.94-25.27 677.93-26.9 681-26.9L681-26.9Q681.57-26.9 682.11-26.82 682.66-26.73 682.93-26.61L682.93-26.61ZM690.25-20.95L690.25 0 687.32 0 687.32-26.42 690.13-26.42 690.25-20.95ZM689.72-14.87L688.3-15.6Q688.5-18.7 689.77-21.26 691.04-23.83 693.31-25.37 695.58-26.9 698.8-26.9L698.8-26.9Q702.66-26.9 704.98-24.74 707.3-22.58 707.3-17.58L707.3-17.58 707.3 0 704.37 0 704.37-17.48Q704.37-20.12 703.56-21.62 702.75-23.12 701.3-23.75 699.85-24.39 697.94-24.39L697.94-24.39Q695.7-24.39 694.15-23.47 692.6-22.56 691.63-21.11 690.67-19.65 690.22-17.99 689.77-16.33 689.72-14.87L689.72-14.87ZM707.27-17.16L705.32-17.11Q705.49-19.65 706.77-21.9 708.05-24.15 710.34-25.52 712.62-26.9 715.74-26.9L715.74-26.9Q718.5-26.9 720.43-25.92 722.36-24.93 723.37-22.79 724.39-20.65 724.39-17.21L724.39-17.21 724.39 0 721.46 0 721.46-17.24Q721.46-20.04 720.65-21.59 719.84-23.14 718.39-23.77 716.94-24.39 715.03-24.39L715.03-24.39Q713.11-24.37 711.68-23.68 710.25-23 709.29-21.92 708.32-20.85 707.82-19.59 707.32-18.33 707.27-17.16L707.27-17.16ZM760.07-4.74L760.07-18.36Q760.07-21.19 758.32-22.83 756.56-24.46 753.26-24.46L753.26-24.46Q751.21-24.46 749.61-23.74 748.01-23.02 747.1-21.81 746.18-20.61 746.18-19.12L746.18-19.12 743.25-19.14Q743.25-21.14 744.53-22.91 745.82-24.68 748.1-25.79 750.38-26.9 753.38-26.9L753.38-26.9Q756.22-26.9 758.38-25.95 760.54-25 761.77-23.1 763-21.19 763-18.31L763-18.31 763-5.54Q763-4.17 763.21-2.71 763.42-1.25 763.81-0.29L763.81-0.29 763.81 0 760.68 0Q760.39-0.88 760.23-2.21 760.07-3.54 760.07-4.74L760.07-4.74ZM760.76-15.38L760.81-13.13 755.07-13.13Q750.6-13.13 748.07-11.56 745.55-9.99 745.55-7.28L745.55-7.28Q745.55-5.13 747.15-3.61 748.75-2.1 751.48-2.1L751.48-2.1Q753.92-2.1 755.79-2.99 757.66-3.88 758.87-5.37 760.07-6.86 760.51-8.59L760.51-8.59 761.78-6.91Q761.47-5.69 760.62-4.41 759.78-3.13 758.44-2.01 757.1-0.9 755.28-0.21 753.46 0.49 751.16 0.49L751.16 0.49Q748.57 0.49 746.66-0.49 744.74-1.46 743.68-3.16 742.62-4.86 742.62-7.01L742.62-7.01Q742.62-10.91 745.85-13.15 749.09-15.38 754.68-15.38L754.68-15.38 760.76-15.38ZM780.82-26.42L780.82-24.02 767.57-24.02 767.57-26.42 780.82-26.42ZM772.4-33.2L775.33-33.2 775.33-6.42Q775.33-4.59 775.82-3.65 776.31-2.71 777.1-2.39 777.89-2.08 778.8-2.08L778.8-2.08Q779.46-2.08 780.05-2.16 780.65-2.25 781.14-2.32L781.14-2.32 781.26 0.1Q780.73 0.27 779.87 0.38 779.02 0.49 778.16 0.49L778.16 0.49Q776.48 0.49 775.18-0.13 773.89-0.76 773.14-2.28 772.4-3.81 772.4-6.45L772.4-6.45 772.4-33.2ZM815.14-4.74L815.14-18.36Q815.14-21.19 813.39-22.83 811.63-24.46 808.33-24.46L808.33-24.46Q806.28-24.46 804.68-23.74 803.08-23.02 802.17-21.81 801.25-20.61 801.25-19.12L801.25-19.12 798.32-19.14Q798.32-21.14 799.6-22.91 800.89-24.68 803.17-25.79 805.45-26.9 808.45-26.9L808.45-26.9Q811.29-26.9 813.45-25.95 815.61-25 816.84-23.1 818.07-21.19 818.07-18.31L818.07-18.31 818.07-5.54Q818.07-4.17 818.28-2.71 818.49-1.25 818.88-0.29L818.88-0.29 818.88 0 815.75 0Q815.46-0.88 815.3-2.21 815.14-3.54 815.14-4.74L815.14-4.74ZM815.83-15.38L815.88-13.13 810.14-13.13Q805.67-13.13 803.14-11.56 800.62-9.99 800.62-7.28L800.62-7.28Q800.62-5.13 802.22-3.61 803.82-2.1 806.55-2.1L806.55-2.1Q808.99-2.1 810.86-2.99 812.73-3.88 813.94-5.37 815.14-6.86 815.58-8.59L815.58-8.59 816.85-6.91Q816.54-5.69 815.69-4.41 814.85-3.13 813.51-2.01 812.17-0.9 810.35-0.21 808.53 0.49 806.23 0.49L806.23 0.49Q803.65 0.49 801.73-0.49 799.81-1.46 798.75-3.16 797.69-4.86 797.69-7.01L797.69-7.01Q797.69-10.91 800.92-13.15 804.16-15.38 809.75-15.38L809.75-15.38 815.83-15.38ZM848.07-26.42L848.07-24.02 834.82-24.02 834.82-26.42 848.07-26.42ZM839.65-33.2L842.58-33.2 842.58-6.42Q842.58-4.59 843.07-3.65 843.56-2.71 844.35-2.39 845.14-2.08 846.05-2.08L846.05-2.08Q846.71-2.08 847.3-2.16 847.9-2.25 848.39-2.32L848.39-2.32 848.51 0.1Q847.98 0.27 847.12 0.38 846.27 0.49 845.41 0.49L845.41 0.49Q843.73 0.49 842.43-0.13 841.14-0.76 840.4-2.28 839.65-3.81 839.65-6.45L839.65-6.45 839.65-33.2ZM857.4-26.42L857.4 0 854.49 0 854.49-26.42 857.4-26.42ZM853.98-34.06L853.98-34.06Q853.98-34.89 854.5-35.46 855.03-36.04 855.96-36.04L855.96-36.04Q856.91-36.04 857.45-35.46 857.98-34.89 857.98-34.06L857.98-34.06Q857.98-33.25 857.45-32.69 856.91-32.13 855.96-32.13L855.96-32.13Q855.03-32.13 854.5-32.69 853.98-33.25 853.98-34.06ZM868.14-20.95L868.14 0 865.21 0 865.21-26.42 868.02-26.42 868.14-20.95ZM867.6-14.87L866.18-15.6Q866.38-18.7 867.65-21.26 868.92-23.83 871.19-25.37 873.46-26.9 876.68-26.9L876.68-26.9Q880.54-26.9 882.86-24.74 885.18-22.58 885.18-17.58L885.18-17.58 885.18 0 882.25 0 882.25-17.48Q882.25-20.12 881.44-21.62 880.64-23.12 879.18-23.75 877.73-24.39 875.83-24.39L875.83-24.39Q873.58-24.39 872.03-23.47 870.48-22.56 869.52-21.11 868.55-19.65 868.1-17.99 867.65-16.33 867.6-14.87L867.6-14.87ZM885.15-17.16L883.2-17.11Q883.37-19.65 884.65-21.9 885.94-24.15 888.22-25.52 890.5-26.9 893.63-26.9L893.63-26.9Q896.38-26.9 898.31-25.92 900.24-24.93 901.25-22.79 902.27-20.65 902.27-17.21L902.27-17.21 902.27 0 899.34 0 899.34-17.24Q899.34-20.04 898.53-21.59 897.73-23.14 896.27-23.77 894.82-24.39 892.92-24.39L892.92-24.39Q890.99-24.37 889.56-23.68 888.13-23 887.17-21.92 886.2-20.85 885.7-19.59 885.2-18.33 885.15-17.16L885.15-17.16ZM919.92 0.49L919.92 0.49Q916.47 0.49 913.8-1.18 911.13-2.86 909.6-5.77 908.08-8.69 908.08-12.48L908.08-12.48 908.08-13.53Q908.08-17.6 909.65-20.61 911.23-23.61 913.8-25.26 916.38-26.9 919.38-26.9L919.38-26.9Q922.75-26.9 925.09-25.35 927.44-23.8 928.65-21.07 929.85-18.33 929.85-14.82L929.85-14.82 929.85-13.04 909.86-13.04 909.86-15.5 926.92-15.5 926.92-15.84Q926.88-18.07 926.03-20.02 925.19-21.97 923.53-23.21 921.87-24.44 919.38-24.44L919.38-24.44Q916.91-24.44 915.01-23.05 913.11-21.66 912.06-19.2 911.01-16.75 911.01-13.53L911.01-13.53 911.01-12.48Q911.01-9.55 912.14-7.18 913.28-4.81 915.33-3.39 917.38-1.98 920.04-1.98L920.04-1.98Q922.38-1.98 924.19-2.84 926-3.71 927.44-5.59L927.44-5.59 929.29-4.2Q928-2.27 925.74-0.89 923.48 0.49 919.92 0.49Z" opacity="1" transform="matrix(1,0,0,1,0,0)" fill="#5ebc67" class="undefined-text-1" data-fill-palette-color="secondary" id="text-1">
	</path>
</svg>
