<svg width="244.43135999999998" viewBox="1.45 -34.85 225.68 44.85" height="48.57220423571112" data-palette-color="#2ecc40">
	<path d="M15.35 0.8Q11.05 0.8 7.93-1.33 4.8-3.45 3.13-7.43 1.45-11.4 1.45-16.95L1.45-16.95Q1.45-22.55 3.13-26.58 4.8-30.6 7.93-32.73 11.05-34.85 15.35-34.85L15.35-34.85Q19.3-34.85 22.18-33.08 25.05-31.3 27.1-27.85L27.1-27.85 24.15-25.75Q21-31.45 15.35-31.45L15.35-31.45Q10.65-31.45 8.03-27.63 5.4-23.8 5.4-17L5.4-17Q5.4-10.25 8.05-6.43 10.7-2.6 15.35-2.6L15.35-2.6Q17.95-2.6 20.03-3.85 22.1-5.1 23.3-7.55 24.5-10 24.5-13.55L24.5-13.55 16.45-13.55 16.45-16.65 28.2-16.65 28.2-13.55Q28.2-8.9 26.55-5.68 24.9-2.45 21.98-0.83 19.05 0.8 15.35 0.8L15.35 0.8ZM44.95-24.2Q46.15-24.2 47.25-23.85L47.25-23.85 47.25-20.75Q46.2-21.25 44.95-21.25L44.95-21.25Q42.8-21.25 40.95-20.05 39.1-18.85 37.97-16.57 36.85-14.3 36.85-11.2L36.85-11.2 36.85 0 33.45 0 33.45-23.4 36.85-23.4 36.85-18.7Q38.2-21.3 40.27-22.75 42.35-24.2 44.95-24.2L44.95-24.2ZM60-24.2Q63.15-24.2 65.7-22.65 68.25-21.1 69.7-18.43 71.15-15.75 71.15-12.45L71.15-12.45Q71.15-11.5 71.09-11L71.09-11 51.85-11Q52.05-7.4 54.2-4.85 56.35-2.3 60.05-2.3L60.05-2.3Q63.05-2.3 65.02-3.43 67-4.55 68.2-6.55L68.2-6.55 70.9-4.75Q69.25-2.15 66.55-0.68 63.85 0.8 60.15 0.8L60.15 0.8Q56.75 0.8 54.1-0.8 51.45-2.4 49.95-5.25 48.45-8.1 48.45-11.7L48.45-11.7Q48.45-15.3 49.92-18.15 51.4-21 54.02-22.6 56.65-24.2 60-24.2L60-24.2ZM52.05-13.8L67.75-13.8Q67.25-17.45 65.3-19.28 63.35-21.1 60-21.1L60-21.1Q56.75-21.1 54.67-19.03 52.6-16.95 52.05-13.8L52.05-13.8ZM86.24-24.2Q89.39-24.2 91.94-22.65 94.49-21.1 95.94-18.43 97.39-15.75 97.39-12.45L97.39-12.45Q97.39-11.5 97.34-11L97.34-11 78.09-11Q78.29-7.4 80.44-4.85 82.59-2.3 86.29-2.3L86.29-2.3Q89.29-2.3 91.27-3.43 93.24-4.55 94.44-6.55L94.44-6.55 97.14-4.75Q95.49-2.15 92.79-0.68 90.09 0.8 86.39 0.8L86.39 0.8Q82.99 0.8 80.34-0.8 77.69-2.4 76.19-5.25 74.69-8.1 74.69-11.7L74.69-11.7Q74.69-15.3 76.17-18.15 77.64-21 80.27-22.6 82.89-24.2 86.24-24.2L86.24-24.2ZM78.29-13.8L93.99-13.8Q93.49-17.45 91.54-19.28 89.59-21.1 86.24-21.1L86.24-21.1Q82.99-21.1 80.92-19.03 78.84-16.95 78.29-13.8L78.29-13.8ZM113.54-24.2Q115.99-24.2 118.07-23.2 120.14-22.2 121.37-20.25 122.59-18.3 122.59-15.65L122.59-15.65 122.59 0 119.19 0 119.19-14.15Q119.19-21.1 112.99-21.1L112.99-21.1Q109.39-21.1 107.59-18.55 105.79-16 105.79-11.7L105.79-11.7 105.79 0 102.39 0 102.39-23.4 105.79-23.4 105.79-19.5Q106.99-21.75 108.97-22.98 110.94-24.2 113.54-24.2L113.54-24.2ZM141.44 0.8Q137.69 0.8 134.14-1.07 130.59-2.95 128.24-6.15L128.24-6.15 131.29-8.85Q133.09-6 135.89-4.33 138.69-2.65 141.94-2.65L141.94-2.65Q145.49-2.65 147.34-4.23 149.19-5.8 149.19-8.5L149.19-8.5Q149.19-11.45 147.21-13.03 145.24-14.6 140.94-15.8L140.94-15.8Q130.14-18.45 130.14-25.6L130.14-25.6Q130.14-30.05 133.04-32.45 135.94-34.85 141.09-34.85L141.09-34.85Q144.84-34.85 147.81-33.45 150.79-32.05 153.14-29.15L153.14-29.15 150.19-26.65Q148.39-29.1 146.24-30.28 144.09-31.45 141.09-31.45L141.09-31.45Q137.94-31.45 135.94-29.98 133.94-28.5 133.94-25.95L133.94-25.95Q133.94-23.35 135.79-21.83 137.64-20.3 142.04-19.25L142.04-19.25Q147.24-17.85 150.11-15.4 152.99-12.95 152.99-8.5L152.99-8.5Q152.99-5.75 151.59-3.65 150.19-1.55 147.56-0.38 144.94 0.8 141.44 0.8L141.44 0.8ZM167.04-4L174.49-23.4 177.69-23.4 165.04 10 161.64 10 165.34 0.45 155.74-23.4 159.29-23.4 167.04-4ZM191.98-24.2Q194.43-24.2 196.51-23.2 198.58-22.2 199.81-20.25 201.03-18.3 201.03-15.65L201.03-15.65 201.03 0 197.63 0 197.63-14.15Q197.63-21.1 191.43-21.1L191.43-21.1Q187.83-21.1 186.03-18.55 184.23-16 184.23-11.7L184.23-11.7 184.23 0 180.83 0 180.83-23.4 184.23-23.4 184.23-19.5Q185.43-21.75 187.41-22.98 189.38-24.2 191.98-24.2L191.98-24.2ZM217.83 0.8Q214.43 0.8 211.78-0.8 209.13-2.4 207.63-5.25 206.13-8.1 206.13-11.7L206.13-11.7Q206.13-15.3 207.6-18.15 209.08-21 211.73-22.6 214.38-24.2 217.73-24.2L217.73-24.2Q220.58-24.2 222.71-22.98 224.83-21.75 226.58-19.5L226.58-19.5 224.08-17.55Q221.63-21.1 217.73-21.1L217.73-21.1Q215.38-21.1 213.5-19.9 211.63-18.7 210.58-16.55 209.53-14.4 209.53-11.7L209.53-11.7Q209.53-9 210.58-6.85 211.63-4.7 213.5-3.5 215.38-2.3 217.73-2.3L217.73-2.3Q220.13-2.3 221.68-3.13 223.23-3.95 224.48-5.55L224.48-5.55 227.13-3.7Q225.48-1.65 223.06-0.43 220.63 0.8 217.83 0.8L217.83 0.8Z" opacity="1" transform="matrix(1,0,0,1,0,0)" fill="#2ecc40" class="undefined-text-0" data-fill-palette-color="primary" id="text-0">
	</path>
</svg>
