<?xml version="1.0" standalone="no"?>
<!DOCTYPE svg PUBLIC "-//W3C//DTD SVG 20010904//EN"
 "http://www.w3.org/TR/2001/REC-SVG-20010904/DTD/svg10.dtd">
<svg version="1.0" xmlns="http://www.w3.org/2000/svg"
 width="808.000000pt" height="808.000000pt" viewBox="0 0 808.000000 808.000000"
 preserveAspectRatio="xMidYMid meet">
<metadata>
Created by potrace 1.14, written by Peter Selinger 2001-2017
</metadata>
<g transform="translate(0.000000,808.000000) scale(0.100000,-0.100000)"
fill="#000000" stroke="none">
<path d="M3130 7485 c0 -560 -1 -595 -17 -596 -10 0 -132 -1 -271 -1 l-253 -1
4 -666 c2 -366 7 -682 11 -701 4 -19 9 -44 11 -55 15 -83 82 -248 138 -340 55
-90 180 -229 262 -290 22 -17 42 -33 45 -36 13 -15 152 -89 215 -114 141 -56
243 -77 395 -81 58 -1 114 -3 125 -3 21 -1 21 -5 19 -378 -1 -208 -2 -379 -3
-381 0 -1 -18 17 -38 40 -259 292 -643 519 -1018 603 -173 39 -252 47 -477 49
-219 2 -263 -8 -328 -74 -75 -77 -81 -102 -76 -340 2 -113 7 -223 10 -245 40
-257 101 -450 209 -660 51 -98 152 -257 169 -263 4 -2 8 -8 8 -14 0 -22 183
-220 292 -315 19 -17 73 -59 119 -92 46 -34 89 -66 96 -71 7 -6 14 -10 17 -10
2 0 37 -19 78 -43 87 -51 242 -122 271 -125 4 -1 20 -8 35 -16 15 -8 41 -18
57 -22 17 -4 32 -8 35 -9 29 -9 99 -28 112 -31 10 -2 28 -7 41 -10 27 -7 71
-14 172 -29 70 -10 102 -13 165 -14 l56 -1 -1 -1072 0 -1073 255 -3 255 -2 0
451 c0 394 2 452 15 454 8 1 47 5 85 9 99 8 195 26 315 56 366 93 735 323 980
611 30 35 57 66 60 69 12 12 109 149 137 195 96 157 217 448 238 574 3 19 7
37 9 40 2 3 7 24 10 46 4 22 9 54 12 70 13 71 15 111 21 295 6 216 1 250 -48
323 -22 34 -46 54 -92 77 l-62 31 -230 -5 c-126 -2 -241 -7 -255 -10 -14 -4
-41 -9 -60 -12 -30 -4 -135 -25 -150 -29 -3 -1 -12 -4 -20 -7 -17 -6 -90 -26
-105 -29 -51 -9 -275 -109 -373 -166 -41 -24 -76 -43 -78 -43 -3 0 -10 -4 -17
-10 -7 -5 -50 -38 -97 -72 -101 -75 -129 -100 -225 -195 -40 -40 -75 -73 -77
-73 -2 0 -3 439 -3 976 l0 976 125 3 c128 3 156 6 270 31 31 6 41 9 60 17 8 3
44 17 80 30 36 14 81 34 101 45 20 11 47 26 60 34 83 46 239 186 299 267 14
19 30 39 35 45 30 33 115 204 143 291 20 59 35 134 47 226 4 35 9 1052 5 1265
l0 31 -252 1 c-139 0 -263 1 -275 1 l-23 1 0 595 0 595 -253 0 -253 0 1 -595
c0 -522 -2 -595 -15 -596 -68 -4 -822 0 -827 4 -3 4 -6 271 -7 594 l-1 588
-252 3 -253 2 0 -595z m1911 -1118 c4 -66 0 -695 -5 -737 -6 -48 -12 -76 -31
-138 -3 -7 -4 -15 -4 -18 0 -4 -3 -10 -8 -13 -4 -3 -19 -28 -33 -56 -31 -63
-150 -181 -218 -218 -29 -15 -84 -38 -124 -51 -71 -24 -73 -24 -528 -25 -381
-1 -470 1 -526 14 -238 54 -426 254 -460 490 -5 39 -9 597 -5 737 l1 27 970 0
c758 0 970 -2 971 -12z m-2534 -2353 c31 -3 60 -7 64 -10 4 -2 24 -6 45 -10
133 -21 399 -137 519 -226 91 -68 176 -143 239 -210 187 -199 334 -493 371
-743 1 -11 6 -38 10 -60 3 -22 8 -53 9 -69 l2 -28 -71 6 c-39 3 -85 10 -103
15 -18 6 -35 10 -37 10 -31 -1 -242 66 -262 83 -7 6 -13 8 -13 5 0 -5 -110 49
-155 76 -47 28 -101 62 -110 69 -142 113 -187 154 -270 249 -47 53 -115 147
-115 158 0 5 -3 11 -7 13 -15 6 -63 97 -127 241 -31 69 -79 250 -91 347 -3 25
-7 54 -8 65 -5 30 3 37 29 31 14 -4 50 -9 81 -12z m3173 -1348 c-21 -151 -68
-298 -145 -456 -119 -246 -345 -480 -595 -617 -110 -61 -284 -127 -390 -149
-58 -11 -177 -29 -200 -29 -28 0 -28 5 -16 100 26 198 85 368 197 565 8 14 16
27 19 30 3 3 18 24 33 48 34 52 61 86 137 168 108 117 264 233 420 310 49 24
91 44 95 44 4 0 21 6 38 13 54 23 149 50 216 62 19 3 37 8 41 10 3 2 37 7 75
10 39 4 72 9 75 12 11 11 11 -45 0 -121z"/>
</g>
</svg>
