<svg xmlns="http://www.w3.org/2000/svg" version="1.1" xmlns:xlink="http://www.w3.org/1999/xlink" xmlns:svgjs="http://svgjs.dev/svgjs" width="1000" height="1000" viewBox="0 0 1000 1000"><rect width="1000" height="1000" fill="#ffffff"></rect><g transform="matrix(0.7,0,0,0.7,149.57575757575756,282.1265587044535)"><svg viewBox="0 0 396 247" data-background-color="#f6f9f3" preserveAspectRatio="xMidYMid meet" height="623" width="1000" xmlns="http://www.w3.org/2000/svg" xmlns:xlink="http://www.w3.org/1999/xlink"><g id="tight-bounds" transform="matrix(1,0,0,1,0.2400000000000091,-0.09999999999999432)"><svg viewBox="0 0 395.52 247.2" height="247.2" width="395.52"><g><svg></svg></g><g><svg viewBox="0 0 395.52 247.2" height="247.2" width="395.52"><g transform="matrix(1,0,0,1,75.54432000000001,89.44620139561734)"><svg viewBox="0 0 244.43135999999996 68.30759720876532" height="68.30759720876532" width="244.43135999999996"><g><svg viewBox="0 0 244.43135999999996 68.30759720876532" height="68.30759720876532" width="244.43135999999996"><g><svg viewBox="0 0 244.43135999999996 68.30759720876532" height="68.30759720876532" width="244.43135999999996"><g><svg viewBox="0 0 244.43135999999996 68.30759720876532" height="68.30759720876532" width="244.43135999999996"><g id="textblocktransform"><svg viewBox="0 0 244.43135999999996 68.30759720876532" height="68.30759720876532" width="244.43135999999996" id="textblock"><g><svg viewBox="0 0 244.43135999999996 46.456252631578934" height="46.456252631578934" width="244.43135999999996"><g transform="matrix(1,0,0,1,0,0)"><svg width="244.43135999999996" viewBox="2.9000000953674316 -35.5 239.3800048828125 45.5" height="46.456252631578934" data-palette-color="#3d9970"><path d="M27.25 0L27.25-5.1 27.1-5.1Q26.45-2.65 23.93-1.03 21.4 0.6 17.4 0.6L17.4 0.6Q14.2 0.6 11.53-0.58 8.85-1.75 6.95-4.03 5.05-6.3 3.98-9.68 2.9-13.05 2.9-17.45L2.9-17.45Q2.9-21.8 3.95-25.18 5-28.55 6.95-30.83 8.9-33.1 11.65-34.3 14.4-35.5 17.75-35.5L17.75-35.5Q22.45-35.5 25.6-33.4 28.75-31.3 30.45-27.85L30.45-27.85 27-25.75Q25.8-28.55 23.43-30.15 21.05-31.75 17.75-31.75L17.75-31.75Q15.45-31.75 13.55-30.93 11.65-30.1 10.28-28.6 8.9-27.1 8.15-25 7.4-22.9 7.4-20.3L7.4-20.3 7.4-14.65Q7.4-12.05 8.15-9.93 8.9-7.8 10.28-6.3 11.65-4.8 13.65-3.98 15.65-3.15 18.15-3.15L18.15-3.15Q19.95-3.15 21.58-3.63 23.2-4.1 24.43-5.05 25.65-6 26.35-7.43 27.05-8.85 27.05-10.8L27.05-10.8 27.05-14.25 19.35-14.25 19.35-17.95 31.15-17.95 31.15 0 27.25 0ZM43 0L39 0 39-25.8 43-25.8 43-21.05 43.25-21.05Q43.95-22.9 45.75-24.35 47.55-25.8 50.7-25.8L50.7-25.8 52.25-25.8 52.25-21.8 49.9-21.8Q46.65-21.8 44.82-20.58 43-19.35 43-17.5L43-17.5 43 0ZM66.8 0.6L66.8 0.6Q64.15 0.6 62.02-0.35 59.9-1.3 58.37-3.08 56.85-4.85 56.02-7.33 55.2-9.8 55.2-12.9L55.2-12.9Q55.2-15.95 56.02-18.45 56.85-20.95 58.37-22.73 59.9-24.5 62.02-25.45 64.15-26.4 66.8-26.4L66.8-26.4Q69.4-26.4 71.45-25.45 73.5-24.5 74.95-22.83 76.4-21.15 77.17-18.85 77.95-16.55 77.95-13.8L77.95-13.8 77.95-11.9 59.4-11.9 59.4-10.7Q59.4-9.05 59.92-7.63 60.45-6.2 61.42-5.15 62.4-4.1 63.82-3.5 65.25-2.9 67.05-2.9L67.05-2.9Q69.5-2.9 71.32-4.05 73.15-5.2 74.15-7.35L74.15-7.35 77-5.3Q75.75-2.65 73.09-1.03 70.45 0.6 66.8 0.6ZM66.8-23.05L66.8-23.05Q65.15-23.05 63.8-22.48 62.45-21.9 61.47-20.85 60.5-19.8 59.95-18.38 59.4-16.95 59.4-15.25L59.4-15.25 59.4-14.9 73.65-14.9 73.65-15.45Q73.65-18.9 71.77-20.98 69.9-23.05 66.8-23.05ZM94.24 0.6L94.24 0.6Q91.59 0.6 89.47-0.35 87.34-1.3 85.82-3.08 84.29-4.85 83.47-7.33 82.64-9.8 82.64-12.9L82.64-12.9Q82.64-15.95 83.47-18.45 84.29-20.95 85.82-22.73 87.34-24.5 89.47-25.45 91.59-26.4 94.24-26.4L94.24-26.4Q96.84-26.4 98.89-25.45 100.94-24.5 102.39-22.83 103.84-21.15 104.62-18.85 105.39-16.55 105.39-13.8L105.39-13.8 105.39-11.9 86.84-11.9 86.84-10.7Q86.84-9.05 87.37-7.63 87.89-6.2 88.87-5.15 89.84-4.1 91.27-3.5 92.69-2.9 94.49-2.9L94.49-2.9Q96.94-2.9 98.77-4.05 100.59-5.2 101.59-7.35L101.59-7.35 104.44-5.3Q103.19-2.65 100.54-1.03 97.89 0.6 94.24 0.6ZM94.24-23.05L94.24-23.05Q92.59-23.05 91.24-22.48 89.89-21.9 88.92-20.85 87.94-19.8 87.39-18.38 86.84-16.95 86.84-15.25L86.84-15.25 86.84-14.9 101.09-14.9 101.09-15.45Q101.09-18.9 99.22-20.98 97.34-23.05 94.24-23.05ZM115.99 0L111.99 0 111.99-25.8 115.99-25.8 115.99-21.6 116.19-21.6Q117.14-23.8 118.87-25.1 120.59-26.4 123.49-26.4L123.49-26.4Q127.49-26.4 129.82-23.83 132.14-21.25 132.14-16.55L132.14-16.55 132.14 0 128.14 0 128.14-15.85Q128.14-22.8 122.29-22.8L122.29-22.8Q121.09-22.8 119.97-22.5 118.84-22.2 117.94-21.6 117.04-21 116.52-20.08 115.99-19.15 115.99-17.9L115.99-17.9 115.99 0ZM150.59 0.6L150.59 0.6Q146.34 0.6 143.34-1.03 140.34-2.65 138.24-5.5L138.24-5.5 141.34-8.1Q143.19-5.65 145.44-4.38 147.69-3.1 150.74-3.1L150.74-3.1Q154.49-3.1 156.46-4.9 158.44-6.7 158.44-9.7L158.44-9.7Q158.44-12.2 156.94-13.55 155.44-14.9 151.99-15.7L151.99-15.7 149.14-16.35Q144.34-17.45 141.81-19.68 139.29-21.9 139.29-25.95L139.29-25.95Q139.29-28.25 140.14-30.05 140.99-31.85 142.51-33.05 144.04-34.25 146.16-34.88 148.29-35.5 150.84-35.5L150.84-35.5Q154.79-35.5 157.61-34.05 160.44-32.6 162.39-29.8L162.39-29.8 159.24-27.5Q157.79-29.5 155.74-30.65 153.69-31.8 150.64-31.8L150.64-31.8Q147.29-31.8 145.36-30.38 143.44-28.95 143.44-26.1L143.44-26.1Q143.44-23.6 145.06-22.33 146.69-21.05 149.99-20.3L149.99-20.3 152.84-19.65Q157.99-18.5 160.29-16.15 162.59-13.8 162.59-9.9L162.59-9.9Q162.59-7.5 161.76-5.55 160.94-3.6 159.39-2.25 157.84-0.9 155.61-0.15 153.39 0.6 150.59 0.6ZM179.09-8.25L185.34-25.8 189.29-25.8 177.74 6Q177.29 7.15 176.84 7.93 176.39 8.7 175.74 9.15 175.09 9.6 174.11 9.8 173.14 10 171.74 10L171.74 10 169.69 10 169.69 6.5 173.74 6.5 175.69 1 166.04-25.8 170.04-25.8 176.24-8.25 177.44-4.05 177.69-4.05 179.09-8.25ZM198.38 0L194.38 0 194.38-25.8 198.38-25.8 198.38-21.6 198.58-21.6Q199.53-23.8 201.26-25.1 202.98-26.4 205.88-26.4L205.88-26.4Q209.88-26.4 212.21-23.83 214.53-21.25 214.53-16.55L214.53-16.55 214.53 0 210.53 0 210.53-15.85Q210.53-22.8 204.68-22.8L204.68-22.8Q203.48-22.8 202.36-22.5 201.23-22.2 200.33-21.6 199.43-21 198.91-20.08 198.38-19.15 198.38-17.9L198.38-17.9 198.38 0ZM232.38 0.6L232.38 0.6Q229.68 0.6 227.53-0.35 225.38-1.3 223.91-3.05 222.43-4.8 221.66-7.3 220.88-9.8 220.88-12.9L220.88-12.9Q220.88-16 221.66-18.5 222.43-21 223.91-22.75 225.38-24.5 227.53-25.45 229.68-26.4 232.38-26.4L232.38-26.4Q236.23-26.4 238.56-24.73 240.88-23.05 242.03-20.35L242.03-20.35 238.68-18.65Q237.98-20.65 236.38-21.75 234.78-22.85 232.38-22.85L232.38-22.85Q230.58-22.85 229.23-22.28 227.88-21.7 226.98-20.68 226.08-19.65 225.63-18.23 225.18-16.8 225.18-15.1L225.18-15.1 225.18-10.7Q225.18-7.3 227.01-5.13 228.83-2.95 232.38-2.95L232.38-2.95Q237.23-2.95 239.38-7.45L239.38-7.45 242.28-5.5Q241.03-2.7 238.56-1.05 236.08 0.6 232.38 0.6Z" opacity="1" transform="matrix(1,0,0,1,0,0)" fill="#000000" class="undefined-text-0" data-fill-palette-color="primary" id="text-0"></path></svg></g></svg></g><g transform="matrix(1,0,0,1,0,57.42345892783156)"><svg viewBox="0 0 244.43135999999996 10.884138280933747" height="10.884138280933747" width="244.43135999999996"><g transform="matrix(1,0,0,1,0,0)"><svg width="244.43135999999996" viewBox="4.5 -39.04999923706055 1111.550048828125 49.5" height="10.884138280933747" data-palette-color="#ff851b"><path d="M42.15 0L42.15 0Q41.5 0 41.08-0.43 40.65-0.85 40.65-1.5L40.65-1.5 40.65-15.95Q40.65-19.8 38.63-22.25 36.6-24.7 33.35-24.7L33.35-24.7Q29.9-24.7 27.73-22.43 25.55-20.15 25.65-16.3L25.65-16.3 22.65-16.3Q22.75-19.75 24.15-22.3 25.55-24.85 27.95-26.28 30.35-27.7 33.35-27.7L33.35-27.7Q36.4-27.7 38.7-26.2 41-24.7 42.33-22.05 43.65-19.4 43.65-15.95L43.65-15.95 43.65-1.5Q43.65-0.85 43.25-0.43 42.85 0 42.15 0ZM6 0L6 0Q5.35 0 4.93-0.43 4.5-0.85 4.5-1.5L4.5-1.5 4.5-25.85Q4.5-26.55 4.93-26.95 5.35-27.35 6-27.35L6-27.35Q6.7-27.35 7.1-26.95 7.5-26.55 7.5-25.85L7.5-25.85 7.5-1.5Q7.5-0.85 7.1-0.43 6.7 0 6 0ZM24.15 0L24.15 0Q23.5 0 23.08-0.43 22.65-0.85 22.65-1.5L22.65-1.5 22.65-15.95Q22.65-19.8 20.63-22.25 18.6-24.7 15.35-24.7L15.35-24.7Q11.9-24.7 9.7-22.5 7.5-20.3 7.5-16.8L7.5-16.8 5-16.8Q5.15-20 6.53-22.45 7.9-24.9 10.2-26.3 12.5-27.7 15.35-27.7L15.35-27.7Q18.4-27.7 20.7-26.2 23-24.7 24.33-22.05 25.65-19.4 25.65-15.95L25.65-15.95 25.65-1.5Q25.65-0.85 25.25-0.43 24.85 0 24.15 0ZM64.65 0.3L64.65 0.3Q60.65 0.3 57.47-1.53 54.3-3.35 52.47-6.53 50.65-9.7 50.65-13.65L50.65-13.65Q50.65-17.65 52.47-20.83 54.3-24 57.47-25.83 60.65-27.65 64.65-27.65L64.65-27.65Q68.65-27.65 71.8-25.83 74.95-24 76.77-20.83 78.6-17.65 78.6-13.65L78.6-13.65Q78.6-9.7 76.77-6.53 74.95-3.35 71.8-1.53 68.65 0.3 64.65 0.3ZM64.65-2.5L64.65-2.5Q67.8-2.5 70.27-3.98 72.75-5.45 74.17-7.98 75.6-10.5 75.6-13.7L75.6-13.7Q75.6-16.85 74.17-19.38 72.75-21.9 70.27-23.38 67.8-24.85 64.65-24.85L64.65-24.85Q61.55-24.85 59.05-23.38 56.55-21.9 55.1-19.38 53.65-16.85 53.65-13.65L53.65-13.65Q53.65-10.5 55.1-7.98 56.55-5.45 59.05-3.98 61.55-2.5 64.65-2.5ZM98.6 0.3L98.6 0.3Q94.6 0.3 91.42-1.53 88.25-3.35 86.42-6.53 84.6-9.7 84.6-13.7L84.6-13.7Q84.6-17.7 86.42-20.85 88.25-24 91.42-25.83 94.6-27.65 98.6-27.65L98.6-27.65Q102.2-27.65 105.07-26.1 107.95-24.55 109.55-21.95L109.55-21.95 109.55-37.55Q109.55-38.25 109.97-38.65 110.4-39.05 111.05-39.05L111.05-39.05Q111.75-39.05 112.15-38.65 112.55-38.25 112.55-37.55L112.55-37.55 112.55-13.4Q112.5-9.5 110.65-6.4 108.8-3.3 105.67-1.5 102.55 0.3 98.6 0.3ZM98.6-2.5L98.6-2.5Q101.75-2.5 104.22-3.98 106.7-5.45 108.12-7.98 109.55-10.5 109.55-13.7L109.55-13.7Q109.55-16.9 108.12-19.4 106.7-21.9 104.22-23.38 101.75-24.85 98.6-24.85L98.6-24.85Q95.5-24.85 93-23.38 90.5-21.9 89.05-19.4 87.6-16.9 87.6-13.7L87.6-13.7Q87.6-10.5 89.05-7.98 90.5-5.45 93-3.98 95.5-2.5 98.6-2.5ZM133.64 0.25L133.64 0.25Q129.69 0.25 126.62-1.53 123.54-3.3 121.79-6.45 120.04-9.6 120.04-13.65L120.04-13.65Q120.04-17.75 121.69-20.88 123.34-24 126.24-25.8 129.14-27.6 132.89-27.6L132.89-27.6Q136.59-27.6 139.44-25.88 142.29-24.15 143.89-21.13 145.49-18.1 145.49-14.15L145.49-14.15Q145.49-13.5 145.09-13.13 144.69-12.75 144.04-12.75L144.04-12.75 122.04-12.75 122.04-15.35 144.84-15.35 142.64-13.7Q142.74-16.95 141.54-19.45 140.34-21.95 138.12-23.38 135.89-24.8 132.89-24.8L132.89-24.8Q130.04-24.8 127.82-23.38 125.59-21.95 124.32-19.45 123.04-16.95 123.04-13.65L123.04-13.65Q123.04-10.4 124.39-7.9 125.74-5.4 128.14-3.98 130.54-2.55 133.64-2.55L133.64-2.55Q135.59-2.55 137.57-3.23 139.54-3.9 140.69-5L140.69-5Q141.09-5.4 141.67-5.43 142.24-5.45 142.64-5.1L142.64-5.1Q143.19-4.65 143.22-4.1 143.24-3.55 142.74-3.1L142.74-3.1Q141.14-1.65 138.57-0.7 135.99 0.25 133.64 0.25ZM154.99-16.7L152.99-16.7Q153.29-19.9 154.74-22.38 156.19-24.85 158.49-26.25 160.79-27.65 163.59-27.65L163.59-27.65Q165.49-27.65 166.54-27.2 167.59-26.75 167.34-25.6L167.34-25.6Q167.19-24.85 166.64-24.7 166.09-24.55 165.31-24.68 164.54-24.8 163.59-24.8L163.59-24.8Q161.09-24.8 159.14-23.75 157.19-22.7 156.09-20.88 154.99-19.05 154.99-16.7L154.99-16.7ZM153.49 0L153.49 0Q152.84 0 152.42-0.43 151.99-0.85 151.99-1.5L151.99-1.5 151.99-25.85Q151.99-26.55 152.42-26.95 152.84-27.35 153.49-27.35L153.49-27.35Q154.19-27.35 154.59-26.95 154.99-26.55 154.99-25.85L154.99-25.85 154.99-1.5Q154.99-0.85 154.59-0.43 154.19 0 153.49 0ZM197.54 0L197.54 0Q196.89 0 196.46-0.43 196.04-0.85 196.04-1.5L196.04-1.5 196.04-14.95Q196.04-18.25 194.76-20.4 193.49-22.55 191.31-23.63 189.14-24.7 186.39-24.7L186.39-24.7Q183.69-24.7 181.54-23.68 179.39-22.65 178.14-20.85 176.89-19.05 176.89-16.8L176.89-16.8 174.39-16.8Q174.59-19.9 176.24-22.38 177.89-24.85 180.54-26.28 183.19-27.7 186.39-27.7L186.39-27.7Q189.99-27.7 192.86-26.23 195.74-24.75 197.39-21.93 199.04-19.1 199.04-14.95L199.04-14.95 199.04-1.5Q199.04-0.85 198.61-0.43 198.19 0 197.54 0ZM175.39 0L175.39 0Q174.74 0 174.31-0.43 173.89-0.85 173.89-1.5L173.89-1.5 173.89-25.85Q173.89-26.55 174.31-26.95 174.74-27.35 175.39-27.35L175.39-27.35Q176.09-27.35 176.49-26.95 176.89-26.55 176.89-25.85L176.89-25.85 176.89-1.5Q176.89-0.85 176.49-0.43 176.09 0 175.39 0ZM210.04 0L210.04 0Q209.39 0 208.96-0.43 208.54-0.85 208.54-1.5L208.54-1.5 208.54-25.85Q208.54-26.55 208.96-26.95 209.39-27.35 210.04-27.35L210.04-27.35Q210.74-27.35 211.14-26.95 211.54-26.55 211.54-25.85L211.54-25.85 211.54-1.5Q211.54-0.85 211.14-0.43 210.74 0 210.04 0ZM209.99-33.1L209.99-33.1Q209.04-33.1 208.36-33.77 207.69-34.45 207.69-35.45L207.69-35.45Q207.69-36.6 208.41-37.18 209.14-37.75 210.04-37.75L210.04-37.75Q210.89-37.75 211.61-37.18 212.34-36.6 212.34-35.45L212.34-35.45Q212.34-34.45 211.66-33.77 210.99-33.1 209.99-33.1ZM242.33-25.15L223.53-1.55 220.58-2.3 240.23-26.8 242.33-25.15ZM241.18 0L221.63 0Q220.28 0 220.28-1.35L220.28-1.35Q220.28-2.7 221.63-2.7L221.63-2.7 241.18-2.7Q242.53-2.7 242.53-1.35L242.53-1.35Q242.53 0 241.18 0L241.18 0ZM241.18-24.65L221.63-24.65Q220.28-24.65 220.28-26L220.28-26Q220.28-27.35 221.63-27.35L221.63-27.35 241.18-27.35Q242.53-27.35 242.53-26L242.53-26Q242.53-24.65 241.18-24.65L241.18-24.65ZM251.78 0L251.78 0Q251.13 0 250.71-0.43 250.28-0.85 250.28-1.5L250.28-1.5 250.28-25.85Q250.28-26.55 250.71-26.95 251.13-27.35 251.78-27.35L251.78-27.35Q252.48-27.35 252.88-26.95 253.28-26.55 253.28-25.85L253.28-25.85 253.28-1.5Q253.28-0.85 252.88-0.43 252.48 0 251.78 0ZM251.73-33.1L251.73-33.1Q250.78-33.1 250.11-33.77 249.43-34.45 249.43-35.45L249.43-35.45Q249.43-36.6 250.16-37.18 250.88-37.75 251.78-37.75L251.78-37.75Q252.63-37.75 253.36-37.18 254.08-36.6 254.08-35.45L254.08-35.45Q254.08-34.45 253.41-33.77 252.73-33.1 251.73-33.1ZM286.93 0L286.93 0Q286.28 0 285.85-0.43 285.43-0.85 285.43-1.5L285.43-1.5 285.43-14.95Q285.43-18.25 284.15-20.4 282.88-22.55 280.7-23.63 278.53-24.7 275.78-24.7L275.78-24.7Q273.08-24.7 270.93-23.68 268.78-22.65 267.53-20.85 266.28-19.05 266.28-16.8L266.28-16.8 263.78-16.8Q263.98-19.9 265.63-22.38 267.28-24.85 269.93-26.28 272.58-27.7 275.78-27.7L275.78-27.7Q279.38-27.7 282.25-26.23 285.13-24.75 286.78-21.93 288.43-19.1 288.43-14.95L288.43-14.95 288.43-1.5Q288.43-0.85 288-0.43 287.58 0 286.93 0ZM264.78 0L264.78 0Q264.13 0 263.7-0.43 263.28-0.85 263.28-1.5L263.28-1.5 263.28-25.85Q263.28-26.55 263.7-26.95 264.13-27.35 264.78-27.35L264.78-27.35Q265.48-27.35 265.88-26.95 266.28-26.55 266.28-25.85L266.28-25.85 266.28-1.5Q266.28-0.85 265.88-0.43 265.48 0 264.78 0ZM309.43 0.3L309.43 0.3Q305.32 0.3 302.18-1.5 299.03-3.3 297.23-6.45 295.43-9.6 295.43-13.65L295.43-13.65Q295.43-17.75 297.28-20.9 299.13-24.05 302.3-25.85 305.48-27.65 309.43-27.65L309.43-27.65Q313.53-27.65 316.65-25.85 319.78-24.05 321.57-20.9 323.38-17.75 323.38-13.65L323.38-13.65 321.63-11.65Q321.63-8.15 320.07-5.45 318.53-2.75 315.78-1.23 313.03 0.3 309.43 0.3ZM309.63 10.45L309.63 10.45Q305.48 10.45 302.55 8.9 299.63 7.35 297.73 4.95L297.73 4.95Q297.32 4.45 297.32 3.9 297.32 3.35 297.82 2.95L297.82 2.95Q298.32 2.6 299 2.7 299.68 2.8 300.03 3.35L300.03 3.35Q301.57 5.2 303.98 6.43 306.38 7.65 309.63 7.65L309.63 7.65Q312.73 7.65 315.15 6.15 317.57 4.65 318.98 2.02 320.38-0.6 320.38-3.85L320.38-3.85 320.38-11.8 321.73-13.65 323.38-13.65 323.38-3.85Q323.38 0.2 321.57 3.45 319.78 6.7 316.68 8.58 313.57 10.45 309.63 10.45ZM309.43-2.5L309.43-2.5Q312.63-2.5 315.1-3.93 317.57-5.35 318.98-7.88 320.38-10.4 320.38-13.65L320.38-13.65Q320.38-16.95 318.98-19.48 317.57-22 315.1-23.43 312.63-24.85 309.43-24.85L309.43-24.85Q306.23-24.85 303.73-23.43 301.23-22 299.82-19.48 298.43-16.95 298.43-13.65L298.43-13.65Q298.43-10.4 299.82-7.88 301.23-5.35 303.73-3.93 306.23-2.5 309.43-2.5ZM358.02 0.3L358.02 0.3Q354.02 0.3 350.84-1.53 347.67-3.35 345.84-6.53 344.02-9.7 344.02-13.65L344.02-13.65Q344.02-17.65 345.84-20.83 347.67-24 350.84-25.83 354.02-27.65 358.02-27.65L358.02-27.65Q362.02-27.65 365.17-25.83 368.32-24 370.14-20.83 371.97-17.65 371.97-13.65L371.97-13.65 370.72-11.65Q370.72-8.25 369.04-5.55 367.37-2.85 364.52-1.28 361.67 0.3 358.02 0.3ZM358.02-2.5L358.02-2.5Q361.17-2.5 363.64-3.98 366.12-5.45 367.54-7.98 368.97-10.5 368.97-13.65L368.97-13.65Q368.97-16.85 367.54-19.38 366.12-21.9 363.64-23.38 361.17-24.85 358.02-24.85L358.02-24.85Q354.92-24.85 352.42-23.38 349.92-21.9 348.47-19.38 347.02-16.85 347.02-13.65L347.02-13.65Q347.02-10.5 348.47-7.98 349.92-5.45 352.42-3.98 354.92-2.5 358.02-2.5ZM370.52 0L370.52 0Q369.82 0 369.39-0.43 368.97-0.85 368.97-1.5L368.97-1.5 368.97-10.65 369.92-13.65 371.97-13.65 371.97-1.5Q371.97-0.85 371.57-0.43 371.17 0 370.52 0ZM391.97 0.3L391.97 0.3Q387.87 0.3 384.72-1.5 381.57-3.3 379.77-6.45 377.97-9.6 377.97-13.65L377.97-13.65Q377.97-17.75 379.82-20.9 381.67-24.05 384.84-25.85 388.02-27.65 391.97-27.65L391.97-27.65Q396.07-27.65 399.19-25.85 402.32-24.05 404.12-20.9 405.92-17.75 405.92-13.65L405.92-13.65 404.17-11.65Q404.17-8.15 402.62-5.45 401.07-2.75 398.32-1.23 395.57 0.3 391.97 0.3ZM392.17 10.45L392.17 10.45Q388.02 10.45 385.09 8.9 382.17 7.35 380.27 4.95L380.27 4.95Q379.87 4.45 379.87 3.9 379.87 3.35 380.37 2.95L380.37 2.95Q380.87 2.6 381.54 2.7 382.22 2.8 382.57 3.35L382.57 3.35Q384.12 5.2 386.52 6.43 388.92 7.65 392.17 7.65L392.17 7.65Q395.27 7.65 397.69 6.15 400.12 4.65 401.52 2.02 402.92-0.6 402.92-3.85L402.92-3.85 402.92-11.8 404.27-13.65 405.92-13.65 405.92-3.85Q405.92 0.2 404.12 3.45 402.32 6.7 399.22 8.58 396.12 10.45 392.17 10.45ZM391.97-2.5L391.97-2.5Q395.17-2.5 397.64-3.93 400.12-5.35 401.52-7.88 402.92-10.4 402.92-13.65L402.92-13.65Q402.92-16.95 401.52-19.48 400.12-22 397.64-23.43 395.17-24.85 391.97-24.85L391.97-24.85Q388.77-24.85 386.27-23.43 383.77-22 382.37-19.48 380.97-16.95 380.97-13.65L380.97-13.65Q380.97-10.4 382.37-7.88 383.77-5.35 386.27-3.93 388.77-2.5 391.97-2.5ZM416.41-16.7L414.41-16.7Q414.71-19.9 416.16-22.38 417.61-24.85 419.91-26.25 422.21-27.65 425.01-27.65L425.01-27.65Q426.91-27.65 427.96-27.2 429.01-26.75 428.76-25.6L428.76-25.6Q428.61-24.85 428.06-24.7 427.51-24.55 426.74-24.68 425.96-24.8 425.01-24.8L425.01-24.8Q422.51-24.8 420.56-23.75 418.61-22.7 417.51-20.88 416.41-19.05 416.41-16.7L416.41-16.7ZM414.91 0L414.91 0Q414.26 0 413.84-0.43 413.41-0.85 413.41-1.5L413.41-1.5 413.41-25.85Q413.41-26.55 413.84-26.95 414.26-27.35 414.91-27.35L414.91-27.35Q415.61-27.35 416.01-26.95 416.41-26.55 416.41-25.85L416.41-25.85 416.41-1.5Q416.41-0.85 416.01-0.43 415.61 0 414.91 0ZM437.81 0L437.81 0Q437.16 0 436.74-0.43 436.31-0.85 436.31-1.5L436.31-1.5 436.31-25.85Q436.31-26.55 436.74-26.95 437.16-27.35 437.81-27.35L437.81-27.35Q438.51-27.35 438.91-26.95 439.31-26.55 439.31-25.85L439.31-25.85 439.31-1.5Q439.31-0.85 438.91-0.43 438.51 0 437.81 0ZM437.76-33.1L437.76-33.1Q436.81-33.1 436.14-33.77 435.46-34.45 435.46-35.45L435.46-35.45Q435.46-36.6 436.19-37.18 436.91-37.75 437.81-37.75L437.81-37.75Q438.66-37.75 439.39-37.18 440.11-36.6 440.11-35.45L440.11-35.45Q440.11-34.45 439.44-33.77 438.76-33.1 437.76-33.1ZM461.41 0.3L461.41 0.3Q457.51 0.3 454.43-1.55 451.36-3.4 449.58-6.55 447.81-9.7 447.81-13.65L447.81-13.65Q447.81-17.65 449.46-20.8 451.11-23.95 454.01-25.78 456.91-27.6 460.66-27.6L460.66-27.6Q463.86-27.6 466.51-26.38 469.16-25.15 471.11-22.65L471.11-22.65Q471.51-22.15 471.41-21.6 471.31-21.05 470.76-20.7L470.76-20.7Q470.31-20.35 469.76-20.43 469.21-20.5 468.81-21L468.81-21Q465.61-24.8 460.66-24.8L460.66-24.8Q457.71-24.8 455.48-23.35 453.26-21.9 452.03-19.4 450.81-16.9 450.81-13.65L450.81-13.65Q450.81-10.5 452.16-7.98 453.51-5.45 455.88-3.98 458.26-2.5 461.41-2.5L461.41-2.5Q463.46-2.5 465.28-3.1 467.11-3.7 468.46-4.95L468.46-4.95Q468.91-5.35 469.46-5.4 470.01-5.45 470.41-5.05L470.41-5.05Q470.91-4.6 470.93-4.03 470.96-3.45 470.51-3.05L470.51-3.05Q466.86 0.3 461.41 0.3ZM491.11 0.35L491.11 0.35Q487.51 0.35 484.66-1.13 481.81-2.6 480.13-5.45 478.46-8.3 478.46-12.4L478.46-12.4 478.46-25.85Q478.46-26.5 478.88-26.93 479.31-27.35 479.96-27.35L479.96-27.35Q480.61-27.35 481.03-26.93 481.46-26.5 481.46-25.85L481.46-25.85 481.46-12.4Q481.46-9.15 482.73-6.98 484.01-4.8 486.18-3.73 488.36-2.65 491.11-2.65L491.11-2.65Q493.81-2.65 495.96-3.7 498.11-4.75 499.36-6.53 500.61-8.3 500.61-10.55L500.61-10.55 503.11-10.55Q502.91-7.45 501.26-4.98 499.61-2.5 496.98-1.07 494.36 0.35 491.11 0.35ZM502.11 0L502.11 0Q501.46 0 501.03-0.43 500.61-0.85 500.61-1.5L500.61-1.5 500.61-25.85Q500.61-26.55 501.03-26.95 501.46-27.35 502.11-27.35L502.11-27.35Q502.81-27.35 503.21-26.95 503.61-26.55 503.61-25.85L503.61-25.85 503.61-1.5Q503.61-0.85 503.21-0.43 502.81 0 502.11 0ZM519.1 0L518.1 0Q516.2 0 514.73-1.05 513.25-2.1 512.43-3.95 511.6-5.8 511.6-8.25L511.6-8.25 511.6-37.55Q511.6-38.25 512.03-38.65 512.45-39.05 513.1-39.05L513.1-39.05Q513.8-39.05 514.2-38.65 514.6-38.25 514.6-37.55L514.6-37.55 514.6-8.25Q514.6-5.95 515.58-4.48 516.55-3 518.1-3L518.1-3 519.35-3Q519.9-3 520.25-2.6 520.6-2.2 520.6-1.5L520.6-1.5Q520.6-0.85 520.2-0.43 519.8 0 519.1 0L519.1 0ZM538.45 0L537.3 0Q534.55-0.05 532.4-1.28 530.25-2.5 529.05-4.67 527.85-6.85 527.85-9.6L527.85-9.6 527.85-34.5Q527.85-35.2 528.28-35.63 528.7-36.05 529.35-36.05L529.35-36.05Q530.05-36.05 530.48-35.63 530.9-35.2 530.9-34.5L530.9-34.5 530.9-9.6Q530.9-6.7 532.7-4.88 534.5-3.05 537.35-3.05L537.35-3.05 538.45-3.05Q539.15-3.05 539.58-2.63 540-2.2 540-1.5L540-1.5Q540-0.85 539.58-0.43 539.15 0 538.45 0L538.45 0ZM537.5-23.65L523.95-23.65Q523.35-23.65 522.98-24.03 522.6-24.4 522.6-25L522.6-25Q522.6-25.6 522.98-25.98 523.35-26.35 523.95-26.35L523.95-26.35 537.5-26.35Q538.1-26.35 538.48-25.98 538.85-25.6 538.85-25L538.85-25Q538.85-24.4 538.48-24.03 538.1-23.65 537.5-23.65L537.5-23.65ZM558.4 0.35L558.4 0.35Q554.8 0.35 551.95-1.13 549.1-2.6 547.42-5.45 545.75-8.3 545.75-12.4L545.75-12.4 545.75-25.85Q545.75-26.5 546.17-26.93 546.6-27.35 547.25-27.35L547.25-27.35Q547.9-27.35 548.32-26.93 548.75-26.5 548.75-25.85L548.75-25.85 548.75-12.4Q548.75-9.15 550.02-6.98 551.3-4.8 553.47-3.73 555.65-2.65 558.4-2.65L558.4-2.65Q561.1-2.65 563.25-3.7 565.4-4.75 566.65-6.53 567.9-8.3 567.9-10.55L567.9-10.55 570.4-10.55Q570.2-7.45 568.55-4.98 566.9-2.5 564.27-1.07 561.65 0.35 558.4 0.35ZM569.4 0L569.4 0Q568.75 0 568.32-0.43 567.9-0.85 567.9-1.5L567.9-1.5 567.9-25.85Q567.9-26.55 568.32-26.95 568.75-27.35 569.4-27.35L569.4-27.35Q570.1-27.35 570.5-26.95 570.9-26.55 570.9-25.85L570.9-25.85 570.9-1.5Q570.9-0.85 570.5-0.43 570.1 0 569.4 0ZM582.9-16.7L580.9-16.7Q581.2-19.9 582.65-22.38 584.1-24.85 586.4-26.25 588.7-27.65 591.5-27.65L591.5-27.65Q593.4-27.65 594.45-27.2 595.5-26.75 595.25-25.6L595.25-25.6Q595.1-24.85 594.55-24.7 594-24.55 593.22-24.68 592.45-24.8 591.5-24.8L591.5-24.8Q589-24.8 587.05-23.75 585.1-22.7 584-20.88 582.9-19.05 582.9-16.7L582.9-16.7ZM581.4 0L581.4 0Q580.75 0 580.32-0.43 579.9-0.85 579.9-1.5L579.9-1.5 579.9-25.85Q579.9-26.55 580.32-26.95 580.75-27.35 581.4-27.35L581.4-27.35Q582.1-27.35 582.5-26.95 582.9-26.55 582.9-25.85L582.9-25.85 582.9-1.5Q582.9-0.85 582.5-0.43 582.1 0 581.4 0ZM611.89 0.25L611.89 0.25Q607.94 0.25 604.87-1.53 601.79-3.3 600.04-6.45 598.29-9.6 598.29-13.65L598.29-13.65Q598.29-17.75 599.94-20.88 601.59-24 604.49-25.8 607.39-27.6 611.14-27.6L611.14-27.6Q614.84-27.6 617.69-25.88 620.54-24.15 622.14-21.13 623.74-18.1 623.74-14.15L623.74-14.15Q623.74-13.5 623.34-13.13 622.94-12.75 622.29-12.75L622.29-12.75 600.29-12.75 600.29-15.35 623.09-15.35 620.89-13.7Q620.99-16.95 619.79-19.45 618.59-21.95 616.37-23.38 614.14-24.8 611.14-24.8L611.14-24.8Q608.29-24.8 606.07-23.38 603.84-21.95 602.57-19.45 601.29-16.95 601.29-13.65L601.29-13.65Q601.29-10.4 602.64-7.9 603.99-5.4 606.39-3.98 608.79-2.55 611.89-2.55L611.89-2.55Q613.84-2.55 615.82-3.23 617.79-3.9 618.94-5L618.94-5Q619.34-5.4 619.92-5.43 620.49-5.45 620.89-5.1L620.89-5.1Q621.44-4.65 621.47-4.1 621.49-3.55 620.99-3.1L620.99-3.1Q619.39-1.65 616.82-0.7 614.24 0.25 611.89 0.25ZM657.39 0.3L657.39 0.3Q653.39 0.3 650.21-1.53 647.04-3.35 645.21-6.53 643.39-9.7 643.39-13.65L643.39-13.65Q643.39-17.65 645.21-20.83 647.04-24 650.21-25.83 653.39-27.65 657.39-27.65L657.39-27.65Q661.39-27.65 664.54-25.83 667.69-24 669.51-20.83 671.34-17.65 671.34-13.65L671.34-13.65Q671.34-9.7 669.51-6.53 667.69-3.35 664.54-1.53 661.39 0.3 657.39 0.3ZM657.39-2.5L657.39-2.5Q660.54-2.5 663.01-3.98 665.49-5.45 666.91-7.98 668.34-10.5 668.34-13.7L668.34-13.7Q668.34-16.85 666.91-19.38 665.49-21.9 663.01-23.38 660.54-24.85 657.39-24.85L657.39-24.85Q654.29-24.85 651.79-23.38 649.29-21.9 647.84-19.38 646.39-16.85 646.39-13.65L646.39-13.65Q646.39-10.5 647.84-7.98 649.29-5.45 651.79-3.98 654.29-2.5 657.39-2.5ZM702.49 0L702.49 0Q701.84 0 701.41-0.43 700.99-0.85 700.99-1.5L700.99-1.5 700.99-14.95Q700.99-18.25 699.71-20.4 698.44-22.55 696.26-23.63 694.09-24.7 691.34-24.7L691.34-24.7Q688.64-24.7 686.49-23.68 684.34-22.65 683.09-20.85 681.84-19.05 681.84-16.8L681.84-16.8 679.34-16.8Q679.54-19.9 681.19-22.38 682.84-24.85 685.49-26.28 688.14-27.7 691.34-27.7L691.34-27.7Q694.94-27.7 697.81-26.23 700.69-24.75 702.34-21.93 703.99-19.1 703.99-14.95L703.99-14.95 703.99-1.5Q703.99-0.85 703.56-0.43 703.14 0 702.49 0ZM680.34 0L680.34 0Q679.69 0 679.26-0.43 678.84-0.85 678.84-1.5L678.84-1.5 678.84-25.85Q678.84-26.55 679.26-26.95 679.69-27.35 680.34-27.35L680.34-27.35Q681.04-27.35 681.44-26.95 681.84-26.55 681.84-25.85L681.84-25.85 681.84-1.5Q681.84-0.85 681.44-0.43 681.04 0 680.34 0ZM724.58 0.25L724.58 0.25Q720.63 0.25 717.56-1.53 714.48-3.3 712.73-6.45 710.98-9.6 710.98-13.65L710.98-13.65Q710.98-17.75 712.63-20.88 714.28-24 717.18-25.8 720.08-27.6 723.83-27.6L723.83-27.6Q727.53-27.6 730.38-25.88 733.23-24.15 734.83-21.13 736.43-18.1 736.43-14.15L736.43-14.15Q736.43-13.5 736.03-13.13 735.63-12.75 734.98-12.75L734.98-12.75 712.98-12.75 712.98-15.35 735.78-15.35 733.58-13.7Q733.68-16.95 732.48-19.45 731.28-21.95 729.06-23.38 726.83-24.8 723.83-24.8L723.83-24.8Q720.98-24.8 718.76-23.38 716.53-21.95 715.26-19.45 713.98-16.95 713.98-13.65L713.98-13.65Q713.98-10.4 715.33-7.9 716.68-5.4 719.08-3.98 721.48-2.55 724.58-2.55L724.58-2.55Q726.53-2.55 728.51-3.23 730.48-3.9 731.63-5L731.63-5Q732.03-5.4 732.61-5.43 733.18-5.45 733.58-5.1L733.58-5.1Q734.13-4.65 734.16-4.1 734.18-3.55 733.68-3.1L733.68-3.1Q732.08-1.65 729.51-0.7 726.93 0.25 724.58 0.25ZM761.33 0L761.33 0Q760.68 0 760.25-0.43 759.83-0.85 759.83-1.5L759.83-1.5 759.83-27.4Q759.83-30.8 760.88-33.43 761.93-36.05 764.15-37.55 766.38-39.05 769.83-39.05L769.83-39.05Q770.53-39.05 770.93-38.68 771.33-38.3 771.33-37.7L771.33-37.7Q771.33-37.1 770.93-36.73 770.53-36.35 769.83-36.35L769.83-36.35Q767.28-36.35 765.75-35.18 764.23-34 763.55-31.98 762.88-29.95 762.88-27.4L762.88-27.4 762.88-1.5Q762.88-0.85 762.45-0.43 762.03 0 761.33 0ZM769.48-23.65L755.93-23.65Q755.33-23.65 754.95-24.03 754.58-24.4 754.58-25L754.58-25Q754.58-25.6 754.95-25.98 755.33-26.35 755.93-26.35L755.93-26.35 769.48-26.35Q770.08-26.35 770.45-25.98 770.83-25.6 770.83-25L770.83-25Q770.83-24.4 770.45-24.03 770.08-23.65 769.48-23.65L769.48-23.65ZM787.33 0.3L787.33 0.3Q783.33 0.3 780.15-1.53 776.98-3.35 775.15-6.53 773.33-9.7 773.33-13.65L773.33-13.65Q773.33-17.65 775.15-20.83 776.98-24 780.15-25.83 783.33-27.65 787.33-27.65L787.33-27.65Q791.33-27.65 794.48-25.83 797.63-24 799.45-20.83 801.28-17.65 801.28-13.65L801.28-13.65 800.03-11.65Q800.03-8.25 798.35-5.55 796.68-2.85 793.83-1.28 790.98 0.3 787.33 0.3ZM787.33-2.5L787.33-2.5Q790.48-2.5 792.95-3.98 795.43-5.45 796.85-7.98 798.28-10.5 798.28-13.65L798.28-13.65Q798.28-16.85 796.85-19.38 795.43-21.9 792.95-23.38 790.48-24.85 787.33-24.85L787.33-24.85Q784.23-24.85 781.73-23.38 779.23-21.9 777.78-19.38 776.33-16.85 776.33-13.65L776.33-13.65Q776.33-10.5 777.78-7.98 779.23-5.45 781.73-3.98 784.23-2.5 787.33-2.5ZM799.83 0L799.83 0Q799.13 0 798.7-0.43 798.28-0.85 798.28-1.5L798.28-1.5 798.28-10.65 799.23-13.65 801.28-13.65 801.28-1.5Q801.28-0.85 800.88-0.43 800.48 0 799.83 0ZM811.77-16.7L809.77-16.7Q810.07-19.9 811.52-22.38 812.97-24.85 815.27-26.25 817.57-27.65 820.37-27.65L820.37-27.65Q822.27-27.65 823.32-27.2 824.37-26.75 824.12-25.6L824.12-25.6Q823.97-24.85 823.42-24.7 822.87-24.55 822.1-24.68 821.32-24.8 820.37-24.8L820.37-24.8Q817.87-24.8 815.92-23.75 813.97-22.7 812.87-20.88 811.77-19.05 811.77-16.7L811.77-16.7ZM810.27 0L810.27 0Q809.62 0 809.2-0.43 808.77-0.85 808.77-1.5L808.77-1.5 808.77-25.85Q808.77-26.55 809.2-26.95 809.62-27.35 810.27-27.35L810.27-27.35Q810.97-27.35 811.37-26.95 811.77-26.55 811.77-25.85L811.77-25.85 811.77-1.5Q811.77-0.85 811.37-0.43 810.97 0 810.27 0ZM868.32 0L868.32 0Q867.67 0 867.25-0.43 866.82-0.85 866.82-1.5L866.82-1.5 866.82-15.95Q866.82-19.8 864.8-22.25 862.77-24.7 859.52-24.7L859.52-24.7Q856.07-24.7 853.9-22.43 851.72-20.15 851.82-16.3L851.82-16.3 848.82-16.3Q848.92-19.75 850.32-22.3 851.72-24.85 854.12-26.28 856.52-27.7 859.52-27.7L859.52-27.7Q862.57-27.7 864.87-26.2 867.17-24.7 868.5-22.05 869.82-19.4 869.82-15.95L869.82-15.95 869.82-1.5Q869.82-0.85 869.42-0.43 869.02 0 868.32 0ZM832.17 0L832.17 0Q831.52 0 831.1-0.43 830.67-0.85 830.67-1.5L830.67-1.5 830.67-25.85Q830.67-26.55 831.1-26.95 831.52-27.35 832.17-27.35L832.17-27.35Q832.87-27.35 833.27-26.95 833.67-26.55 833.67-25.85L833.67-25.85 833.67-1.5Q833.67-0.85 833.27-0.43 832.87 0 832.17 0ZM850.32 0L850.32 0Q849.67 0 849.25-0.43 848.82-0.85 848.82-1.5L848.82-1.5 848.82-15.95Q848.82-19.8 846.8-22.25 844.77-24.7 841.52-24.7L841.52-24.7Q838.07-24.7 835.87-22.5 833.67-20.3 833.67-16.8L833.67-16.8 831.17-16.8Q831.32-20 832.7-22.45 834.07-24.9 836.37-26.3 838.67-27.7 841.52-27.7L841.52-27.7Q844.57-27.7 846.87-26.2 849.17-24.7 850.5-22.05 851.82-19.4 851.82-15.95L851.82-15.95 851.82-1.5Q851.82-0.85 851.42-0.43 851.02 0 850.32 0ZM905.47 0.3L905.47 0.3Q901.47 0.3 898.29-1.53 895.12-3.35 893.29-6.53 891.47-9.7 891.47-13.65L891.47-13.65Q891.47-17.65 893.29-20.83 895.12-24 898.29-25.83 901.47-27.65 905.47-27.65L905.47-27.65Q909.47-27.65 912.62-25.83 915.77-24 917.59-20.83 919.42-17.65 919.42-13.65L919.42-13.65 918.17-11.65Q918.17-8.25 916.49-5.55 914.82-2.85 911.97-1.28 909.12 0.3 905.47 0.3ZM905.47-2.5L905.47-2.5Q908.62-2.5 911.09-3.98 913.57-5.45 914.99-7.98 916.42-10.5 916.42-13.65L916.42-13.65Q916.42-16.85 914.99-19.38 913.57-21.9 911.09-23.38 908.62-24.85 905.47-24.85L905.47-24.85Q902.37-24.85 899.87-23.38 897.37-21.9 895.92-19.38 894.47-16.85 894.47-13.65L894.47-13.65Q894.47-10.5 895.92-7.98 897.37-5.45 899.87-3.98 902.37-2.5 905.47-2.5ZM917.97 0L917.97 0Q917.27 0 916.84-0.43 916.42-0.85 916.42-1.5L916.42-1.5 916.42-10.65 917.37-13.65 919.42-13.65 919.42-1.5Q919.42-0.85 919.02-0.43 918.62 0 917.97 0ZM939.26 0L938.11 0Q935.36-0.05 933.21-1.28 931.06-2.5 929.86-4.67 928.66-6.85 928.66-9.6L928.66-9.6 928.66-34.5Q928.66-35.2 929.09-35.63 929.51-36.05 930.16-36.05L930.16-36.05Q930.86-36.05 931.29-35.63 931.71-35.2 931.71-34.5L931.71-34.5 931.71-9.6Q931.71-6.7 933.51-4.88 935.31-3.05 938.16-3.05L938.16-3.05 939.26-3.05Q939.96-3.05 940.39-2.63 940.81-2.2 940.81-1.5L940.81-1.5Q940.81-0.85 940.39-0.43 939.96 0 939.26 0L939.26 0ZM938.31-23.65L924.76-23.65Q924.16-23.65 923.79-24.03 923.41-24.4 923.41-25L923.41-25Q923.41-25.6 923.79-25.98 924.16-26.35 924.76-26.35L924.76-26.35 938.31-26.35Q938.91-26.35 939.29-25.98 939.66-25.6 939.66-25L939.66-25Q939.66-24.4 939.29-24.03 938.91-23.65 938.31-23.65L938.31-23.65ZM974.21 0.3L974.21 0.3Q970.21 0.3 967.03-1.53 963.86-3.35 962.03-6.53 960.21-9.7 960.21-13.65L960.21-13.65Q960.21-17.65 962.03-20.83 963.86-24 967.03-25.83 970.21-27.65 974.21-27.65L974.21-27.65Q978.21-27.65 981.36-25.83 984.51-24 986.33-20.83 988.16-17.65 988.16-13.65L988.16-13.65 986.91-11.65Q986.91-8.25 985.23-5.55 983.56-2.85 980.71-1.28 977.86 0.3 974.21 0.3ZM974.21-2.5L974.21-2.5Q977.36-2.5 979.83-3.98 982.31-5.45 983.73-7.98 985.16-10.5 985.16-13.65L985.16-13.65Q985.16-16.85 983.73-19.38 982.31-21.9 979.83-23.38 977.36-24.85 974.21-24.85L974.21-24.85Q971.11-24.85 968.61-23.38 966.11-21.9 964.66-19.38 963.21-16.85 963.21-13.65L963.21-13.65Q963.21-10.5 964.66-7.98 966.11-5.45 968.61-3.98 971.11-2.5 974.21-2.5ZM986.71 0L986.71 0Q986.01 0 985.58-0.43 985.16-0.85 985.16-1.5L985.16-1.5 985.16-10.65 986.11-13.65 988.16-13.65 988.16-1.5Q988.16-0.85 987.76-0.43 987.36 0 986.71 0ZM1022.65 0L1021.5 0Q1018.75-0.05 1016.6-1.28 1014.45-2.5 1013.25-4.67 1012.05-6.85 1012.05-9.6L1012.05-9.6 1012.05-34.5Q1012.05-35.2 1012.48-35.63 1012.9-36.05 1013.55-36.05L1013.55-36.05Q1014.25-36.05 1014.68-35.63 1015.1-35.2 1015.1-34.5L1015.1-34.5 1015.1-9.6Q1015.1-6.7 1016.9-4.88 1018.7-3.05 1021.55-3.05L1021.55-3.05 1022.65-3.05Q1023.35-3.05 1023.78-2.63 1024.2-2.2 1024.2-1.5L1024.2-1.5Q1024.2-0.85 1023.78-0.43 1023.35 0 1022.65 0L1022.65 0ZM1021.7-23.65L1008.15-23.65Q1007.55-23.65 1007.18-24.03 1006.8-24.4 1006.8-25L1006.8-25Q1006.8-25.6 1007.18-25.98 1007.55-26.35 1008.15-26.35L1008.15-26.35 1021.7-26.35Q1022.3-26.35 1022.68-25.98 1023.05-25.6 1023.05-25L1023.05-25Q1023.05-24.4 1022.68-24.03 1022.3-23.65 1021.7-23.65L1021.7-23.65ZM1032.95 0L1032.95 0Q1032.3 0 1031.88-0.43 1031.45-0.85 1031.45-1.5L1031.45-1.5 1031.45-25.85Q1031.45-26.55 1031.88-26.95 1032.3-27.35 1032.95-27.35L1032.95-27.35Q1033.65-27.35 1034.05-26.95 1034.45-26.55 1034.45-25.85L1034.45-25.85 1034.45-1.5Q1034.45-0.85 1034.05-0.43 1033.65 0 1032.95 0ZM1032.9-33.1L1032.9-33.1Q1031.95-33.1 1031.28-33.77 1030.6-34.45 1030.6-35.45L1030.6-35.45Q1030.6-36.6 1031.33-37.18 1032.05-37.75 1032.95-37.75L1032.95-37.75Q1033.8-37.75 1034.53-37.18 1035.25-36.6 1035.25-35.45L1035.25-35.45Q1035.25-34.45 1034.58-33.77 1033.9-33.1 1032.9-33.1ZM1082.1 0L1082.1 0Q1081.45 0 1081.02-0.43 1080.6-0.85 1080.6-1.5L1080.6-1.5 1080.6-15.95Q1080.6-19.8 1078.57-22.25 1076.55-24.7 1073.3-24.7L1073.3-24.7Q1069.85-24.7 1067.67-22.43 1065.5-20.15 1065.6-16.3L1065.6-16.3 1062.6-16.3Q1062.7-19.75 1064.1-22.3 1065.5-24.85 1067.9-26.28 1070.3-27.7 1073.3-27.7L1073.3-27.7Q1076.35-27.7 1078.65-26.2 1080.95-24.7 1082.27-22.05 1083.6-19.4 1083.6-15.95L1083.6-15.95 1083.6-1.5Q1083.6-0.85 1083.2-0.43 1082.8 0 1082.1 0ZM1045.95 0L1045.95 0Q1045.3 0 1044.87-0.43 1044.45-0.85 1044.45-1.5L1044.45-1.5 1044.45-25.85Q1044.45-26.55 1044.87-26.95 1045.3-27.35 1045.95-27.35L1045.95-27.35Q1046.65-27.35 1047.05-26.95 1047.45-26.55 1047.45-25.85L1047.45-25.85 1047.45-1.5Q1047.45-0.85 1047.05-0.43 1046.65 0 1045.95 0ZM1064.1 0L1064.1 0Q1063.45 0 1063.02-0.43 1062.6-0.85 1062.6-1.5L1062.6-1.5 1062.6-15.95Q1062.6-19.8 1060.57-22.25 1058.55-24.7 1055.3-24.7L1055.3-24.7Q1051.85-24.7 1049.65-22.5 1047.45-20.3 1047.45-16.8L1047.45-16.8 1044.95-16.8Q1045.1-20 1046.47-22.45 1047.85-24.9 1050.15-26.3 1052.45-27.7 1055.3-27.7L1055.3-27.7Q1058.35-27.7 1060.65-26.2 1062.95-24.7 1064.27-22.05 1065.6-19.4 1065.6-15.95L1065.6-15.95 1065.6-1.5Q1065.6-0.85 1065.2-0.43 1064.8 0 1064.1 0ZM1104.2 0.25L1104.2 0.25Q1100.25 0.25 1097.17-1.53 1094.1-3.3 1092.35-6.45 1090.6-9.6 1090.6-13.65L1090.6-13.65Q1090.6-17.75 1092.25-20.88 1093.9-24 1096.8-25.8 1099.7-27.6 1103.45-27.6L1103.45-27.6Q1107.15-27.6 1110-25.88 1112.85-24.15 1114.45-21.13 1116.05-18.1 1116.05-14.15L1116.05-14.15Q1116.05-13.5 1115.65-13.13 1115.25-12.75 1114.6-12.75L1114.6-12.75 1092.6-12.75 1092.6-15.35 1115.4-15.35 1113.2-13.7Q1113.3-16.95 1112.1-19.45 1110.9-21.95 1108.67-23.38 1106.45-24.8 1103.45-24.8L1103.45-24.8Q1100.6-24.8 1098.37-23.38 1096.15-21.95 1094.87-19.45 1093.6-16.95 1093.6-13.65L1093.6-13.65Q1093.6-10.4 1094.95-7.9 1096.3-5.4 1098.7-3.98 1101.1-2.55 1104.2-2.55L1104.2-2.55Q1106.15-2.55 1108.12-3.23 1110.1-3.9 1111.25-5L1111.25-5Q1111.65-5.4 1112.22-5.43 1112.8-5.45 1113.2-5.1L1113.2-5.1Q1113.75-4.65 1113.77-4.1 1113.8-3.55 1113.3-3.1L1113.3-3.1Q1111.7-1.65 1109.12-0.7 1106.55 0.25 1104.2 0.25Z" opacity="1" transform="matrix(1,0,0,1,0,0)" fill="#000000" class="undefined-text-1" data-fill-palette-color="secondary" id="text-1"></path></svg></g></svg></g></svg></g></svg></g></svg></g></svg></g></svg></g><g><path d="M0 123.6c0-68.262 55.338-123.6 123.6-123.6 54.398 0 100.589 35.142 117.107 83.963l-2.214 0c-16.434-47.643-61.667-81.868-114.893-81.868-67.106 0-121.505 54.4-121.505 121.505 0 67.106 54.4 121.505 121.505 121.505 53.227 0 98.46-34.225 114.893-81.868h2.214c-16.519 48.82-62.709 83.963-117.107 83.963-68.262 0-123.6-55.338-123.6-123.6z" fill="#000000" stroke="transparent" data-fill-palette-color="tertiary"></path></g></svg></g><defs></defs></svg><rect width="395.52" height="247.2" fill="none" stroke="none" visibility="hidden"></rect></g></svg></g></svg>